<svg xmlns="http://www.w3.org/2000/svg" width="115" height="55" viewBox="0 0 115 55" fill="none">
<path fill-rule="evenodd" clip-rule="evenodd" d="M66.4694 41.0691C61.174 45.0695 53.4987 47.2038 46.8903 47.2038C37.6242 47.2038 29.2824 43.6913 22.9715 37.8493C22.4758 37.3898 22.92 36.7638 23.515 37.1216C30.3256 41.1829 38.7468 43.6263 47.4456 43.6263C53.3122 43.6263 59.7659 42.3822 65.6999 39.8007C66.5963 39.4104 67.346 40.4023 66.4694 41.0691Z" fill="#606B85"/>
<path fill-rule="evenodd" clip-rule="evenodd" d="M68.6708 38.4949C67.9965 37.6086 64.1964 38.0762 62.4907 38.2835C61.9711 38.3486 61.8919 37.8851 62.3599 37.5517C65.3864 35.3686 70.3526 35.9988 70.9317 36.7305C71.5108 37.4664 70.781 42.5684 67.9369 45.0036C67.5006 45.3777 67.0841 45.1785 67.2784 44.6824C67.9171 43.0482 69.3491 39.3853 68.6708 38.4949Z" fill="#606B85"/>
<path fill-rule="evenodd" clip-rule="evenodd" d="M62.6101 22.136V20.0138C62.6101 19.6926 62.8481 19.4772 63.1337 19.4772H72.4037C72.7012 19.4772 72.9392 19.6967 72.9392 20.0138V21.831C72.9352 22.136 72.6854 22.5344 72.2411 23.1645L67.4376 30.1936C69.2225 30.149 71.1066 30.4213 72.725 31.3564C73.09 31.5677 73.1891 31.8768 73.2169 32.1816V34.4461C73.2169 34.755 72.8836 35.1169 72.5346 34.9299C69.6826 33.3973 65.8945 33.2306 62.7411 34.9461C62.4198 35.1251 62.0826 34.7673 62.0826 34.4583V32.3077C62.0826 31.9622 62.0865 31.3726 62.4237 30.8482L67.9889 22.6686H63.1456C62.8481 22.6686 62.6101 22.4531 62.6101 22.136ZM28.7948 35.3771H25.9745C25.7048 35.3568 25.4906 35.1495 25.4708 34.8851V20.0504C25.4708 19.7536 25.7127 19.5178 26.0141 19.5178H28.644C28.9177 19.5299 29.1359 19.7455 29.1558 20.0137V21.9531H29.2073C29.8935 20.0789 31.1827 19.2049 32.92 19.2049C34.6851 19.2049 35.7879 20.0789 36.5813 21.9531C37.2635 20.0789 38.8145 19.2049 40.4765 19.2049C41.6585 19.2049 42.9516 19.705 43.741 20.827C44.6334 22.0751 44.451 23.8882 44.451 25.4778L44.447 34.8405C44.447 35.1373 44.2051 35.3772 43.9036 35.3772H41.0873C40.8057 35.3569 40.5796 35.1252 40.5796 34.8405V26.9779C40.5796 26.3518 40.6351 24.7906 40.5003 24.1972C40.2901 23.2011 39.6594 22.9206 38.8422 22.9206C38.1599 22.9206 37.4459 23.3881 37.1564 24.1362C36.8668 24.8843 36.8946 26.1363 36.8946 26.9779V34.8404C36.8946 35.1372 36.6526 35.3771 36.3512 35.3771H33.5349C33.2493 35.3568 33.0271 35.1251 33.0271 34.8404L33.0232 26.9779C33.0232 25.3232 33.2889 22.8882 31.2858 22.8882C29.2589 22.8882 29.3382 25.2623 29.3382 26.9779V34.8404C29.3382 35.1372 29.0963 35.3771 28.7948 35.3771ZM80.9201 19.2048C85.1048 19.2048 87.3698 22.8881 87.3698 27.5715C87.3698 32.0963 84.8669 35.6861 80.92 35.6861C76.8106 35.6861 74.5735 32.0028 74.5735 27.4129C74.5735 22.7946 76.8384 19.2048 80.9201 19.2048ZM80.9438 22.2335C78.8653 22.2335 78.7344 25.1363 78.7344 26.9453C78.7344 28.7586 78.7067 32.6288 80.9201 32.6288C83.1057 32.6288 83.2087 29.5066 83.2087 27.604C83.2087 26.3518 83.1572 24.8557 82.7883 23.6687C82.471 22.636 81.8402 22.2335 80.9438 22.2335ZM92.7961 35.3771H89.9877C89.7061 35.3568 89.48 35.1251 89.48 34.8404L89.4761 20.0016C89.4997 19.7292 89.7339 19.5178 90.0194 19.5178H92.6334C92.8794 19.5299 93.0817 19.7009 93.1372 19.9325V22.201H93.1888C93.9782 20.1724 95.0848 19.2048 97.0324 19.2048C98.2978 19.2048 99.5314 19.6723 100.325 20.9529C101.062 22.14 101.062 24.1362 101.062 25.5713V34.9095C101.031 35.1697 100.797 35.3771 100.519 35.3771H97.6909C97.433 35.3568 97.2188 35.1616 97.1911 34.9095V26.8518C97.1911 25.2298 97.3736 22.8555 95.426 22.8555C94.7398 22.8555 94.109 23.3271 93.7957 24.0426C93.399 24.9493 93.3474 25.8518 93.3474 26.8519V34.8404C93.3435 35.1372 93.0975 35.3771 92.7961 35.3771ZM55.2203 28.2911C55.2203 29.4171 55.2481 30.3563 54.6927 31.3563C54.2446 32.1695 53.5306 32.6694 52.7412 32.6694C51.6584 32.6694 51.0237 31.8239 51.0237 30.5758C51.0237 28.1121 53.1776 27.6649 55.2203 27.6649V28.2911ZM58.0644 35.3364C57.878 35.5072 57.6083 35.5194 57.398 35.4055C56.4619 34.6087 56.2913 34.2388 55.7797 33.4785C54.2326 35.0966 53.1339 35.5804 51.1307 35.5804C48.7547 35.5804 46.9103 34.0802 46.9103 31.0759C46.9103 28.7301 48.1479 27.1324 49.917 26.3518C51.4481 25.6607 53.5861 25.5387 55.2204 25.3476V24.9737C55.2204 24.2866 55.2719 23.4735 54.8752 22.8799C54.5342 22.3474 53.8756 22.1278 53.2926 22.1278C52.2176 22.1278 51.2617 22.6929 51.0277 23.8638C50.98 24.124 50.7936 24.3801 50.5358 24.3923L47.8028 24.0915C47.5728 24.0386 47.3149 23.8475 47.3823 23.4857C48.0091 20.087 51.0078 19.0625 53.6894 19.0625C55.0618 19.0625 56.8547 19.4365 57.9376 20.5017C59.3099 21.8149 59.1791 23.567 59.1791 25.4737V29.9782C59.1791 31.332 59.7266 31.9255 60.2421 32.6573C60.4207 32.9175 60.4603 33.2306 60.2303 33.4257C59.6551 33.9176 58.6317 34.8323 58.0685 35.3446L58.0644 35.3364ZM18.2476 28.2911C18.2476 29.4171 18.2753 30.3563 17.7199 31.3563C17.2718 32.1695 16.5617 32.6694 15.7684 32.6694C14.6856 32.6694 14.0548 31.8239 14.0548 30.5758C14.0548 28.1121 16.2087 27.6649 18.2476 27.6649V28.2911ZM21.0916 35.3364C20.9052 35.5072 20.6355 35.5194 20.4253 35.4055C19.4891 34.6087 19.3225 34.2388 18.8069 33.4785C17.2599 35.0966 16.1652 35.5804 14.158 35.5804C11.786 35.5804 9.9375 34.0802 9.9375 31.0759C9.9375 28.7301 11.1791 27.1324 12.9442 26.3518C14.4753 25.6607 16.6133 25.5387 18.2476 25.3476V24.9737C18.2476 24.2866 18.2991 23.4735 17.9064 22.8799C17.5613 22.3474 16.9029 22.1278 16.3237 22.1278C15.2488 22.1278 14.2889 22.6929 14.0548 23.8638C14.0072 24.124 13.8208 24.3801 13.5669 24.3923L10.83 24.0915C10.5999 24.0386 10.3461 23.8475 10.4095 23.4857C11.0402 20.087 14.035 19.0625 16.7165 19.0625C18.0888 19.0625 19.8818 19.4365 20.9647 20.5017C22.3371 21.8149 22.2062 23.567 22.2062 25.4737V29.9782C22.2062 31.332 22.7536 31.9255 23.2693 32.6573C23.4518 32.9175 23.4914 33.2306 23.2613 33.4257C22.6862 33.9176 21.6628 34.8323 21.0996 35.3446L21.0916 35.3364Z" fill="#606B85"/>
</svg>