<svg width="156" height="55" viewBox="0 0 156 55" fill="none" xmlns="http://www.w3.org/2000/svg">
<g clip-path="url(#clip0_5674_874)">
<path d="M144.724 15.6217C144.709 15.5718 144.694 15.5219 144.674 15.4719C132.844 15.4769 121.018 15.4719 109.193 15.4769C109.163 15.5119 109.143 15.5468 109.138 15.5918C109.138 24.7655 109.138 33.9342 109.133 43.108C109.207 43.5974 109.477 44.0418 109.837 44.3765C109.852 44.3815 109.887 44.3863 109.902 44.3914C110.086 44.5861 110.351 44.6811 110.601 44.771C110.786 44.761 110.965 44.8409 111.15 44.8209H125.832C125.972 44.8159 126.117 44.8409 126.252 44.786C126.257 44.7661 126.262 44.7311 126.267 44.7111C126.272 44.6861 126.276 44.6312 126.282 44.6013C126.596 42.8435 126.901 41.0806 127.235 39.3228L127.265 39.0981C125.907 39.093 124.544 39.0981 123.185 39.093C122.856 39.083 122.516 39.093 122.187 39.053C121.622 39.028 121.053 39.048 120.489 38.9931C119.79 38.9931 119.095 38.9281 118.396 38.9281C117.847 38.8732 117.293 38.8932 116.738 38.8682C116.379 38.8234 116.009 38.8433 115.645 38.8282C115.051 38.7634 114.446 38.8084 113.852 38.7434C113.223 38.7485 112.594 38.6935 111.964 38.6784C111.969 38.6734 111.974 38.6535 111.974 38.6485C112.184 38.6535 112.389 38.6385 112.599 38.6335C113.063 38.5736 113.532 38.6136 113.997 38.5486C114.481 38.5486 114.961 38.4837 115.445 38.4837C115.875 38.4237 116.309 38.4587 116.738 38.3988C117.243 38.3988 117.737 38.3339 118.242 38.3289C118.656 38.2739 119.076 38.3039 119.49 38.2489C119.975 38.2539 120.454 38.179 120.938 38.1841C121.413 38.129 121.897 38.144 122.371 38.094C122.327 37.9094 122.292 37.7246 122.252 37.5397C122.217 37.4249 122.077 37.4499 121.987 37.4348C120.903 37.2799 119.825 37.1253 118.746 36.9755C118.816 36.9204 118.911 36.9454 118.991 36.9355C119.83 36.8705 120.664 36.7956 121.503 36.7357C121.692 36.7258 121.877 36.6908 122.067 36.6858C121.982 36.4261 121.932 36.1414 121.817 35.9018C120.025 35.6271 118.232 35.3824 116.444 35.0877C116.908 35.0128 117.378 34.9779 117.842 34.928L117.882 34.9129C119.365 34.758 120.853 34.5832 122.337 34.4385C124.219 34.4286 126.097 34.4334 127.98 34.4385C128.04 34.4286 128.145 34.4584 128.154 34.3736C128.309 33.5646 128.459 32.7556 128.614 31.9465C128.829 30.823 129.168 29.7143 129.693 28.6906C130.516 27.0426 131.82 25.6443 133.408 24.7155C134.891 23.8466 136.609 23.4271 138.317 23.3472C138.871 23.2972 139.431 23.3122 139.98 23.3821C140.339 23.467 140.709 23.5669 140.994 23.8116C141.228 24.0014 141.368 24.281 141.473 24.5607C141.703 25.2249 141.833 25.914 141.942 26.6082C141.947 26.8878 141.997 27.2024 141.848 27.4571C141.708 27.7068 141.428 27.8267 141.163 27.9016C140.2 28.1513 139.191 27.9165 138.227 28.1513C137.433 28.3211 136.694 28.7605 136.19 29.3948C135.595 30.1338 135.281 31.0526 135.106 31.9716C134.971 32.7906 134.801 33.6095 134.666 34.4335C135.615 34.4386 136.569 34.4285 137.523 34.4386C137.902 34.4386 138.292 34.6483 138.447 35.0078C138.647 35.4673 138.602 35.9867 138.537 36.4711C138.457 37.0154 138.327 37.5547 138.082 38.0541C137.877 38.4786 137.538 38.8681 137.073 39.018C136.834 39.1128 136.574 39.0929 136.319 39.0929C135.48 39.0929 134.641 39.1028 133.802 39.0929C133.668 39.7072 133.578 40.3363 133.458 40.9606C133.238 42.174 133.023 43.3925 132.804 44.6111C132.799 44.6511 132.794 44.7359 132.794 44.7809C133.188 44.8009 133.583 44.7809 133.977 44.7908C136.904 44.7908 139.835 44.7857 142.766 44.7908C143.081 44.8009 143.401 44.726 143.675 44.5711C143.84 44.5112 143.94 44.3664 144.085 44.2865C144.225 44.2066 144.265 44.0419 144.384 43.9369C144.514 43.7072 144.649 43.4676 144.659 43.1978C144.674 43.1978 144.714 43.1928 144.734 43.1878C144.719 33.9992 144.734 24.8105 144.724 15.6217Z" fill="#606B85" stroke="#606B85" stroke-width="0.00469424"/>
<path d="M113.792 9.57904C114.216 9.44421 114.661 9.5341 115.095 9.50414C123.25 9.50913 131.405 9.50414 139.56 9.50414C140.045 9.48416 140.469 9.75882 140.919 9.89865C141.278 10.0435 141.653 10.1583 142.012 10.3131C142.087 10.3431 142.142 10.408 142.197 10.463C142.192 11.1222 142.197 11.7863 142.197 12.4505C142.202 12.6253 142.172 12.8051 142.232 12.9749C142.337 12.9899 142.392 13.0698 142.462 13.1347C142.791 13.2845 143.071 13.5292 143.371 13.729C143.82 14.0486 144.3 14.3282 144.739 14.6578C144.759 14.7877 144.744 14.9225 144.704 15.0423C144.659 15.1822 144.689 15.332 144.674 15.4718C132.843 15.4768 121.018 15.4718 109.192 15.4768C109.168 15.312 109.212 15.1472 109.143 14.9924C109.133 14.8626 109.088 14.6928 109.212 14.6029C109.712 14.2533 110.241 13.9387 110.73 13.5692C111.035 13.3744 111.33 13.1746 111.624 12.9749C111.684 12.875 111.664 12.7502 111.664 12.6403C111.664 11.9162 111.664 11.1921 111.669 10.468C111.839 10.2482 112.134 10.2233 112.368 10.1134C112.843 9.93361 113.323 9.75882 113.792 9.57904ZM113.822 9.66394C113.183 9.90864 112.538 10.1434 111.899 10.3881C111.814 10.403 111.769 10.4779 111.724 10.5429C111.729 10.5828 111.734 10.6527 111.734 10.6927C111.729 11.2919 111.734 11.8912 111.729 12.4905C111.734 12.6403 111.714 12.7901 111.769 12.9249C111.704 12.9899 111.635 13.0548 111.555 13.1047C110.83 13.5741 110.131 14.0835 109.407 14.548C109.282 14.6229 109.143 14.7227 109.182 14.8875C109.158 14.9774 109.202 15.0523 109.297 15.0274C110.865 15.0174 112.429 15.0374 113.997 15.0124C116.329 15.0124 118.656 15.0174 120.988 15.0124L121.023 14.9974C121.128 15.0224 121.233 15.0124 121.343 15.0124C125.567 15.0124 129.792 15.0174 134.022 15.0124C135.35 15.0174 136.684 15.0124 138.017 15.0124C140.214 15.0124 142.417 15.0324 144.614 15.0224C144.679 15.0074 144.699 14.9624 144.674 14.8825C144.669 14.8026 144.699 14.6928 144.614 14.6428C144.264 14.478 143.965 14.2233 143.63 14.0236C143.511 13.9237 143.356 13.8688 143.266 13.7339C142.921 13.5392 142.602 13.2995 142.262 13.0847C142.197 13.0448 142.147 12.9799 142.092 12.9249C142.122 12.8201 142.132 12.7052 142.132 12.5953C142.127 11.9611 142.132 11.3269 142.127 10.6927C142.142 10.5928 142.137 10.4779 142.047 10.413C141.448 10.1983 140.854 9.96857 140.259 9.74884C140.075 9.65895 139.87 9.60901 139.67 9.57904H114.146C114.037 9.58404 113.932 9.63897 113.822 9.66394Z" fill="#606B85" stroke="#606B85" stroke-width="0.00469424"/>
<path d="M111.734 10.6927C112.174 10.8775 112.643 10.9824 113.088 11.1622C113.327 11.2571 113.402 11.5167 113.507 11.7265C113.402 11.8314 113.277 11.9162 113.153 11.9962C112.693 12.3058 112.224 12.6054 111.769 12.925C111.714 12.7902 111.734 12.6404 111.729 12.4905C111.734 11.8913 111.729 11.292 111.734 10.6927ZM140.774 11.1622C141.218 10.9874 141.683 10.8675 142.127 10.6927C142.132 11.327 142.127 11.9612 142.132 12.5954C142.132 12.7053 142.122 12.8201 142.092 12.925C141.703 12.6553 141.308 12.4007 140.919 12.136C140.729 11.9962 140.519 11.8913 140.349 11.7215C140.454 11.5117 140.534 11.2571 140.774 11.1622Z" fill="#606B85" stroke="#606B85" stroke-width="0.00469424"/>
<path d="M119.355 11.3669C119.904 11.237 120.519 11.7264 120.474 12.3007C120.479 12.865 119.884 13.3245 119.34 13.1946C119.12 13.1197 118.911 13.0049 118.776 12.8101C118.601 12.5454 118.561 12.1909 118.701 11.9012C118.801 11.6216 119.07 11.4318 119.355 11.3669ZM133.603 11.6815C133.832 11.4268 134.197 11.282 134.536 11.3719C134.791 11.4468 135.041 11.6116 135.151 11.8613C135.37 12.2907 135.201 12.87 134.771 13.0948C134.392 13.3045 133.912 13.2046 133.623 12.9C133.328 12.5654 133.308 12.0161 133.603 11.6815Z" fill="#606B85" stroke="#606B85" stroke-width="0.00469424"/>
<path d="M113.153 11.9962C113.278 11.9163 113.402 11.8314 113.507 11.7265L113.542 11.7614C113.577 12.0211 113.552 12.2858 113.562 12.5455C113.547 13.3245 113.577 14.1086 113.542 14.8876C112.089 14.8876 110.636 14.8776 109.183 14.8876C109.143 14.7228 109.282 14.6229 109.407 14.548C110.131 14.0836 110.831 13.5742 111.555 13.1048C111.635 13.0549 111.704 12.9899 111.769 12.925C112.224 12.6054 112.693 12.3058 113.153 11.9962ZM140.299 11.8963C140.299 11.8314 140.314 11.7764 140.349 11.7215C140.519 11.8913 140.729 11.9962 140.919 12.136C141.308 12.4007 141.703 12.6554 142.092 12.925C142.147 12.98 142.197 13.0449 142.262 13.0848C142.601 13.2996 142.921 13.5393 143.266 13.734C143.356 13.8689 143.51 13.9238 143.63 14.0237C143.965 14.2234 144.264 14.4781 144.614 14.6429C144.699 14.6929 144.669 14.8027 144.674 14.8826C143.221 14.8876 141.772 14.8776 140.319 14.8876C140.294 14.6879 140.309 14.4881 140.304 14.2933C140.304 13.4943 140.294 12.6953 140.299 11.8963Z" fill="#606B85" stroke="#606B85" stroke-width="0.00469424"/>
<path d="M144.674 14.8826C143.221 14.8876 141.772 14.8776 140.319 14.8876C140.294 14.6878 140.309 14.4881 140.304 14.2933C140.304 13.4943 140.294 12.6953 140.299 11.8963C140.299 11.8313 140.314 11.7764 140.349 11.7215C140.454 11.5117 140.534 11.257 140.774 11.1622C141.218 10.9874 141.683 10.8675 142.127 10.6927C142.142 10.5929 142.137 10.478 142.047 10.4131C141.448 10.1983 140.854 9.96862 140.259 9.74889C140.075 9.659 139.87 9.60906 139.67 9.5791H114.146C114.037 9.5841 113.932 9.63903 113.822 9.664C113.183 9.9087 112.538 10.1434 111.899 10.3881C111.814 10.4031 111.769 10.478 111.724 10.5429C111.729 10.5829 111.734 10.6528 111.734 10.6927C112.174 10.8775 112.643 10.9824 113.088 11.1622C113.327 11.257 113.402 11.5167 113.507 11.7265L113.542 11.7614C113.577 12.0211 113.552 12.2858 113.562 12.5455C113.547 13.3245 113.577 14.1085 113.542 14.8876C112.089 14.8876 110.636 14.8776 109.182 14.8876C109.157 14.9775 109.202 15.0524 109.297 15.0274C110.865 15.0174 112.428 15.0374 113.997 15.0124C116.329 15.0124 118.656 15.0174 120.988 15.0124L121.023 14.9975C121.128 15.0224 121.233 15.0124 121.342 15.0124C125.567 15.0124 129.792 15.0174 134.022 15.0124C135.35 15.0174 136.684 15.0124 138.017 15.0124C140.214 15.0124 142.417 15.0324 144.614 15.0224C144.679 15.0074 144.699 14.9625 144.674 14.8826ZM118.701 11.9013C118.801 11.6216 119.07 11.4318 119.355 11.3669C119.904 11.2371 120.519 11.7265 120.474 12.3008C120.479 12.8651 119.884 13.3245 119.34 13.1947C119.12 13.1198 118.911 13.0049 118.776 12.8101C118.601 12.5455 118.561 12.1909 118.701 11.9013ZM133.603 11.6815C133.832 11.4268 134.197 11.282 134.536 11.3719C134.791 11.4468 135.041 11.6116 135.151 11.8613C135.37 12.2908 135.201 12.8701 134.771 13.0948C134.392 13.3045 133.912 13.2047 133.623 12.9C133.328 12.5654 133.308 12.0161 133.603 11.6815Z" fill="#606B85" stroke="#606B85" stroke-width="0.00469424"/>
<path d="M135.697 23.9474C136.861 23.6178 138.074 23.5229 139.278 23.5229C139.692 23.5329 140.117 23.503 140.526 23.5829C140.671 23.6029 140.811 23.6678 140.956 23.6578C141.19 23.8476 141.33 24.1272 141.435 24.4069C141.665 25.0711 141.795 25.7602 141.904 26.4544C141.909 26.734 141.959 27.0486 141.81 27.3033C141.67 27.553 141.39 27.6729 141.125 27.7478C140.162 27.9975 139.153 27.7627 138.189 27.9975C137.395 28.1673 136.656 28.6067 136.152 29.2409C135.557 29.98 135.243 30.8988 135.068 31.8178C134.933 32.6368 134.763 33.4557 134.628 34.2797C134.568 34.4645 134.534 34.6643 134.499 34.8591C135.442 34.8741 136.386 34.8591 137.33 34.869C137.69 34.8591 138.049 34.879 138.409 34.854C138.609 35.3135 138.564 35.8329 138.499 36.3173C138.419 36.8616 138.289 37.4009 138.044 37.9003C137.839 38.3248 137.5 38.7143 137.035 38.8641C136.796 38.959 136.536 38.939 136.281 38.939C135.442 38.939 134.603 38.949 133.764 38.939C133.63 39.5533 133.54 40.1825 133.42 40.8068C133.2 42.0202 132.985 43.2387 132.766 44.4573C132.761 44.4973 132.756 44.5821 132.756 44.6271V44.6321C130.573 44.6321 128.396 44.6372 126.214 44.6321C126.219 44.6122 126.224 44.5771 126.229 44.5572C126.234 44.5322 126.239 44.4773 126.244 44.4473C126.249 44.4873 126.254 44.5623 126.259 44.5972C126.394 44.6122 126.638 44.682 126.673 44.4873C127.013 42.6496 127.327 40.8018 127.677 38.964C127.542 38.9341 127.402 38.9341 127.263 38.959C127.243 39.0289 127.223 39.0988 127.198 39.1687L127.228 38.944C125.869 38.9389 124.506 38.944 123.148 38.9389C122.818 38.9291 122.478 38.9389 122.149 38.899C121.585 38.874 121.015 38.894 120.451 38.839C119.752 38.839 119.058 38.7741 118.359 38.7741C117.809 38.7192 117.255 38.7391 116.701 38.7142C116.341 38.6693 115.971 38.6892 115.607 38.6743C115.013 38.6093 114.408 38.6544 113.814 38.5893C113.185 38.5944 112.556 38.5394 111.927 38.5245C111.932 38.5195 111.937 38.4995 111.937 38.4945C112.146 38.4995 112.351 38.4845 112.561 38.4795C113.025 38.4196 113.495 38.4595 113.959 38.3946C114.443 38.3946 114.923 38.3296 115.407 38.3296C115.837 38.2698 116.271 38.3047 116.701 38.2448C117.205 38.2448 117.699 38.1798 118.204 38.1749C118.618 38.12 119.038 38.1499 119.452 38.095C119.937 38.1 120.416 38.0251 120.901 38.03C121.375 37.975 121.859 37.99 122.334 37.9401C122.289 37.7554 122.254 37.5706 122.214 37.3858C122.179 37.2708 122.039 37.2958 121.949 37.2809C120.866 37.126 119.787 36.9712 118.708 36.8214C118.778 36.7664 118.873 36.7913 118.953 36.7815C119.792 36.7164 120.626 36.6415 121.465 36.5817C121.655 36.5717 121.839 36.5368 122.029 36.5318C121.944 36.2721 121.894 35.9875 121.779 35.7477C119.987 35.473 118.194 35.2283 116.406 34.9338C116.87 34.8589 117.34 34.8238 117.804 34.7739C119.802 34.7739 121.799 34.7889 123.797 34.7789C124.032 34.764 124.261 34.8189 124.496 34.809C125.595 34.8189 126.693 34.824 127.792 34.8288C128.042 34.8288 128.296 34.8439 128.546 34.8189C128.701 33.8201 128.896 32.8313 129.066 31.8376C129.42 29.9848 130.154 28.1671 131.403 26.7339C132.102 25.8949 132.966 25.1957 133.925 24.6664C134.479 24.3469 135.088 24.1322 135.697 23.9474Z" fill="white" stroke="#606B85" stroke-width="0.00469424"/>
<path d="M135.103 17.217C135.063 17.1421 135.058 17.0522 135.058 16.9673L135.018 16.9723C134.958 16.7526 134.774 16.5428 134.534 16.5329C134.354 16.5179 134.129 16.5229 134.025 16.6927C133.825 16.9623 133.92 17.3069 133.91 17.6115C133.91 17.6315 133.915 17.6665 133.915 17.6864C133.915 17.8912 133.89 18.091 133.855 18.2907C133.825 18.3506 133.81 18.4156 133.81 18.4855C133.725 18.9549 133.555 19.4193 133.325 19.8438C133.281 19.9037 133.245 19.9686 133.231 20.0386C133.081 20.2982 132.901 20.538 132.716 20.7777C132.686 20.8026 132.661 20.8326 132.636 20.8626C132.506 21.0224 132.367 21.1572 132.222 21.297C132.187 21.317 132.162 21.342 132.132 21.3619C131.962 21.5267 131.772 21.6815 131.568 21.8064C131.543 21.8214 131.518 21.8414 131.488 21.8613C130.209 22.7053 128.656 23.0549 127.143 23.0698C125.86 23.1098 124.566 22.8351 123.407 22.2808C123.388 22.2708 123.338 22.2508 123.318 22.2409C123.123 22.136 122.923 22.0461 122.743 21.9163C122.703 21.8963 122.663 21.8713 122.618 21.8513C122.434 21.7415 122.259 21.6216 122.094 21.4818C122.039 21.4319 121.979 21.3919 121.919 21.347C121.739 21.2021 121.555 21.0473 121.4 20.8725C121.36 20.8276 121.32 20.7876 121.28 20.7477C120.736 20.1834 120.311 19.4942 120.087 18.7451C119.872 18.1509 119.902 17.5017 119.877 16.8774C119.697 16.6028 119.318 16.448 119.018 16.6178C118.893 16.7076 118.878 16.8724 118.783 16.9873C118.628 18.6353 119.333 20.2783 120.456 21.4668C120.456 21.5068 120.476 21.5317 120.511 21.5467C120.711 21.7315 120.906 21.9213 121.105 22.101C121.14 22.136 121.18 22.1709 121.225 22.2009C121.425 22.3657 121.64 22.5155 121.85 22.6703C121.889 22.7003 121.929 22.7253 121.974 22.7502C122.249 22.91 122.509 23.0998 122.803 23.2097C122.823 23.2247 122.858 23.2496 122.878 23.2596C123.827 23.7141 124.851 24.0237 125.9 24.1236C126.014 24.1236 126.129 24.1335 126.244 24.1585C126.744 24.1885 127.243 24.1735 127.742 24.1635C129.285 24.0287 130.878 23.6541 132.167 22.7452L132.182 22.7652C132.222 22.7303 132.257 22.7003 132.297 22.6703C132.502 22.5205 132.701 22.3607 132.901 22.1959C132.946 22.161 132.996 22.121 133.041 22.0761C133.261 21.8364 133.515 21.6166 133.7 21.342L133.73 21.3569C133.745 21.332 133.77 21.282 133.785 21.2571C133.955 21.0273 134.11 20.7876 134.26 20.5479C134.269 20.533 134.294 20.508 134.304 20.493L134.285 20.473C134.299 20.4531 134.334 20.4131 134.349 20.3931C134.624 19.8338 134.869 19.2495 134.954 18.6303C134.989 18.6153 135.009 18.5853 135.009 18.5504C135.014 18.3506 135.084 18.1609 135.064 17.9611C135.108 17.7164 135.113 17.4667 135.103 17.217Z" fill="white" stroke="#606B85" stroke-width="0.00469424"/>
<path d="M34.9873 19.3497C35.7111 19.2405 36.5439 19.1722 37.1583 19.6227C37.5406 19.9094 37.6771 20.4282 37.6498 20.8925C37.6771 21.6571 37.3222 22.4763 36.6396 22.8724C36.0388 23.2001 35.3152 23.2272 34.6461 23.159C34.1955 23.1045 33.745 22.8588 33.5128 22.4491C32.9939 21.2612 33.6356 19.5818 34.9873 19.3497ZM13.3324 20.2099C13.3733 19.8002 13.742 19.4316 14.1653 19.4453C17.3194 19.4453 20.4598 19.4589 23.6002 19.4453C23.9415 19.418 24.3102 19.5681 24.4739 19.8685C24.706 20.2781 24.5012 20.7287 24.4739 21.152C24.3784 21.7254 24.4057 22.4901 23.7367 22.7085C21.4429 22.7767 19.149 22.7085 16.8551 22.7358C16.6366 24.183 16.4318 25.6166 16.2133 27.0503C16.2133 27.1049 16.227 27.2279 16.227 27.2824C17.9064 27.2688 19.5858 27.2824 21.2652 27.2688C21.7295 27.2415 22.2209 27.6376 22.18 28.129C22.1391 28.6342 22.0298 29.1257 21.9616 29.6309C21.9069 29.9722 21.6339 30.2863 21.2789 30.3545C19.4082 30.3955 17.5103 30.3136 15.6399 30.3955C15.3394 32.4572 14.9844 34.5188 14.6704 36.5807C14.6295 36.9903 14.3017 37.3453 13.8921 37.3588C13.1139 37.3725 12.3356 37.3725 11.5574 37.3588C11.0522 37.3725 10.6425 36.8126 10.779 36.3348C11.6122 30.9554 12.4723 25.5895 13.3324 20.2099ZM27.2046 19.4725C27.9147 19.4179 28.6383 19.4589 29.3484 19.4453C29.7853 19.418 30.2222 19.7593 30.2631 20.2099C30.2631 20.5648 30.1675 20.9199 30.1266 21.2748C29.5531 24.9341 28.966 28.5933 28.3925 32.2526C28.3106 32.8396 28.1604 33.4677 28.3379 34.0685C28.5427 34.6692 29.4574 34.4098 29.676 35.0378C29.8125 35.543 29.6622 36.0755 29.6213 36.5944C29.5804 37.2771 28.8021 37.4272 28.2697 37.5776C27.1092 37.796 25.7027 37.6321 24.8698 36.6762C24.269 35.98 24.228 34.9968 24.351 34.1231C25.0746 29.4809 25.7983 24.8386 26.5357 20.1826C26.5767 19.8412 26.8497 19.5272 27.2046 19.4725ZM54.3074 20.2099C54.3483 19.8002 54.7171 19.4453 55.1266 19.4453H57.2021C57.7209 19.4316 58.1442 19.9914 58.0213 20.4829C57.5434 23.5141 57.0519 26.5453 56.5741 29.5762C57.2977 29.4671 58.117 29.3305 58.6222 28.7435C59.4686 27.7876 60.1651 26.6818 60.6838 25.5213C60.8613 25.0706 60.9569 24.4153 61.544 24.3333C62.3223 24.306 63.1142 24.3196 63.8925 24.3333C64.425 24.3196 64.8209 24.9204 64.6434 25.4119C64.4386 26.1357 64.0973 26.8046 63.7423 27.4464C62.9504 28.7299 62.0766 29.9996 60.9296 31.01C61.4348 32.5255 62.0766 34.0002 62.6363 35.4885C62.8001 35.98 63.1963 36.5534 62.8275 37.0314C62.4041 37.6048 61.6122 37.3179 61.0252 37.3862C60.4107 37.3179 59.5233 37.632 59.1819 36.9357C58.5401 35.4474 58.0077 33.9183 57.3522 32.43C56.9699 32.4435 56.574 32.4573 56.1916 32.4164C56.1645 32.471 56.1098 32.5801 56.0824 32.6348C55.8776 34.0002 55.6592 35.3656 55.4407 36.7309C55.3587 37.0586 55.0993 37.3454 54.7444 37.3727C54.0208 37.4 53.2834 37.3862 52.5461 37.3862C52.232 37.3862 51.9454 37.1815 51.8088 36.9084C51.6722 36.6352 51.7541 36.3213 51.7952 36.0209C52.6416 30.7506 53.4745 25.4802 54.3074 20.2099ZM92.2513 21.6982C92.347 21.3157 92.7155 21.0564 93.0979 21.07C93.6441 21.0837 94.2039 21.0564 94.7636 21.0837C95.2142 21.0973 95.5692 21.5479 95.5145 21.9848C95.4326 22.7631 95.2414 23.5414 95.1869 24.3195C95.7193 24.3195 96.2655 24.306 96.798 24.3195C97.2759 24.3195 97.6719 24.8111 97.5899 25.2753C97.5216 25.6987 97.426 26.1083 97.3578 26.5314C97.2895 26.8865 96.9892 27.1732 96.6479 27.2278C95.9924 27.2688 95.3508 27.2005 94.709 27.2688C94.436 29.0983 94.1356 30.9278 93.8488 32.7576C93.8078 33.1809 93.7806 33.6587 94.0263 34.0274C94.395 34.478 95.0366 34.314 95.5556 34.3688C95.9652 34.4916 96.2246 34.9423 96.1562 35.352C96.088 35.816 96.0743 36.2803 95.9652 36.7308C95.8013 37.236 95.2142 37.3316 94.7635 37.4544C93.5211 37.7822 92.0874 37.7822 90.9816 37.0585C89.9576 36.3621 89.7936 35.0104 89.9029 33.8635C90.1895 31.6515 90.6403 29.4533 90.886 27.2278C90.5037 27.2414 90.0394 27.296 89.7527 26.9547C89.425 26.6134 89.5889 26.1081 89.6435 25.6848C89.7255 25.2342 89.7117 24.6471 90.2033 24.4013C90.5992 24.2511 91.0499 24.3604 91.4731 24.3058C91.7325 23.4321 91.9783 22.5583 92.2513 21.6982ZM84.5369 26.1219C85.3971 25.2617 86.4348 24.5517 87.6227 24.1968C88.1415 23.9646 88.8105 24.4016 88.797 24.975C88.7014 25.726 88.5238 26.4632 88.4009 27.2005C88.3462 27.5692 88.0322 27.8833 87.6636 27.9242C86.3255 28.1562 85.165 28.9617 84.2365 29.9176C84.0044 30.2044 83.6631 30.4774 83.6221 30.8734C83.3355 32.7849 83.035 34.6964 82.7346 36.6079C82.6937 37.0175 82.3386 37.4136 81.9154 37.3863H79.8399C79.3621 37.4136 78.9389 36.9358 78.9935 36.4578C79.5942 32.6756 80.1951 28.9073 80.7821 25.1251C80.8095 24.7429 81.0826 24.3742 81.4784 24.3332C81.9837 24.3059 82.4888 24.3195 83.0077 24.3195C83.4173 24.3195 83.7995 24.6882 83.7995 25.1115C83.7995 25.6986 83.745 26.2993 83.7313 26.9001C84.0591 26.6954 84.2639 26.3677 84.5369 26.1219ZM33.4991 24.3879C34.2364 24.2377 35.001 24.3606 35.7383 24.3196C36.1616 24.2651 36.6121 24.5381 36.6804 24.9614C36.7351 25.3436 36.6257 25.7123 36.5847 26.081C36.025 29.5901 35.4651 33.0991 34.919 36.6081C34.878 37.0042 34.5505 37.4 34.1271 37.3863C33.3899 37.3863 32.6525 37.4 31.9016 37.3728C31.4373 37.318 31.096 36.7857 31.2189 36.335C31.806 32.6896 32.3659 29.0576 32.953 25.4119C32.9803 25.016 33.0895 24.5517 33.4991 24.3879ZM77.6827 24.5655C75.6482 24.1831 73.573 23.91 71.5112 24.1148C69.6679 24.347 67.811 25.1799 66.6778 26.6954C65.1076 28.6888 64.5751 31.365 64.93 33.8501C65.1212 35.0379 65.64 36.2395 66.6095 36.9767C67.5106 37.6731 68.7258 37.7686 69.8182 37.5911C71.3473 37.2907 72.6444 36.3078 73.7095 35.2154C73.764 35.6796 73.6548 36.1439 73.6821 36.5945C73.7095 37.0176 74.0917 37.4136 74.515 37.3863H75.9078C76.3174 37.3863 76.6587 37.0041 76.6861 36.608C77.2731 32.9079 77.8602 29.2213 78.4337 25.5348C78.5155 25.0706 78.147 24.62 77.6827 24.5655ZM73.8461 30.9963C73.2999 32.0204 72.5352 32.9489 71.675 33.7406C71.1836 34.1503 70.5554 34.5736 69.8865 34.4371C69.2311 34.3006 68.917 33.6179 68.7669 33.0308C68.4255 31.5016 68.7396 29.8357 69.5997 28.5114C69.982 27.8969 70.5964 27.4327 71.3064 27.2415C72.3031 26.9957 73.3545 27.1186 74.324 27.3917L74.3785 27.4464C74.2557 28.6342 74.0235 29.8085 73.8461 30.9963ZM50.8804 28.9483C50.8667 27.5829 50.4981 26.1493 49.5423 25.1252C48.887 24.4016 47.9039 24.0329 46.9481 24.0465C45.3642 23.992 43.876 24.7703 42.7155 25.8079C42.4559 26.0128 42.2785 26.3131 41.9918 26.4769C41.9918 26.0262 42.0328 25.5757 42.019 25.1116C42.0328 24.6882 41.6367 24.3196 41.2271 24.3196H39.8344C39.3976 24.3196 39.0425 24.702 39.0152 25.1251C38.155 30.5867 37.2813 36.0482 36.421 41.5098C36.2982 42.0149 36.7352 42.5338 37.254 42.5201C38.0186 42.5065 38.7969 42.5748 39.5478 42.4654C40.1486 42.3015 40.1349 41.6052 40.2305 41.1001C40.4489 39.8985 40.5992 38.697 40.7357 37.4817C43.4255 38.0006 46.5522 37.6457 48.5593 35.6112C50.1977 33.8227 50.9623 31.3513 50.8804 28.9483ZM47.0573 30.3273C46.9755 31.5834 46.5248 32.8533 45.6511 33.768C44.5179 34.8467 42.7973 34.6964 41.4047 34.3279C41.3775 34.2869 41.3364 34.2049 41.3228 34.1641C41.5412 32.9762 41.6505 31.7746 41.9236 30.6004C42.6882 29.3443 43.6166 28.0744 44.941 27.3781C45.4325 27.1461 46.1016 27.2007 46.4566 27.6513C47.0573 28.4022 47.112 29.4125 47.0573 30.3273Z" fill="#606B85" stroke="#606B85" stroke-width="0.00504382"/>
</g>
<defs>
<clipPath id="clip0_5674_874">
<rect width="134" height="35.3266" fill="white" transform="translate(10.75 9.5)"/>
</clipPath>
</defs>
</svg>
