<svg width="156" height="54" viewBox="0 0 156 54" fill="none" xmlns="http://www.w3.org/2000/svg">
<mask id="mask0_6094_830" style="mask-type:luminance" maskUnits="userSpaceOnUse" x="20" y="14" width="116" height="27">
<path d="M136 14H20V40.7711H136V14Z" fill="white"/>
</mask>
<g mask="url(#mask0_6094_830)">
<path d="M37.1167 23.0633C39.0624 23.0879 40.6878 23.7529 42.0424 25.0828C43.397 26.4128 44.0619 27.989 44.0619 29.8854L44.0127 38.7024C44.0127 39.7614 43.1261 40.5988 42.0178 40.5988C40.9341 40.5988 40.0475 39.7368 40.0721 38.6777L40.1214 29.8607C40.146 29.0726 39.8258 28.3092 39.2348 27.7673C38.6683 27.2009 37.9541 26.9053 37.0921 26.9053C36.2547 26.8807 35.442 27.2255 34.8755 27.8166C34.3091 28.383 34.0382 29.1465 34.0382 29.9346L33.9889 38.6285C33.9889 39.6875 33.0776 40.5495 31.9694 40.5495C30.8611 40.5495 29.9745 39.6629 29.9745 38.6038L30.0237 29.8607C30.0483 29.0973 29.7528 28.3338 29.211 27.792C28.6199 27.1762 27.881 26.8807 26.9944 26.8561C26.1817 26.8314 25.4182 27.127 24.8517 27.6934C24.2607 28.2599 23.9651 28.9495 23.9651 29.7622L23.9159 38.5546C23.9159 39.6136 23.0292 40.4756 21.921 40.451C20.8373 40.451 19.9507 39.589 19.9507 38.53L19.9999 29.7622C19.9999 28.1121 20.6157 26.5359 21.7239 25.3291C23.177 23.7775 24.9503 22.9894 27.019 23.014C28.9893 23.0387 30.6887 23.7283 32.0433 25.1075C33.4717 23.7283 35.1464 23.0633 37.1167 23.0633ZM62.0407 32.8408L50.7362 32.7669C50.8348 34.1215 51.2781 35.2051 52.0908 36.0179C52.9035 36.806 53.9379 37.2247 55.1694 37.2247C56.1545 37.2247 56.9672 37.003 57.6076 36.5597C57.977 36.2888 58.3957 35.8947 58.839 35.3283C59.4055 34.614 60.4152 34.417 61.228 34.8357L61.3511 34.9096C62.3609 35.4514 62.5825 36.7567 61.8437 37.6187C61.7205 37.7665 61.5974 37.9142 61.4496 38.0374C60.9078 38.6038 60.2921 39.121 59.6025 39.5151C58.9375 39.9092 58.2233 40.1801 57.4844 40.3525C56.721 40.5249 55.9082 40.6234 54.997 40.6234C52.4602 40.5987 50.4161 39.8106 48.8645 38.2098C47.3375 36.6089 46.574 34.4909 46.5987 31.8557C46.6233 29.245 47.3868 27.127 48.8891 25.5261C50.4161 23.9499 52.411 23.1618 54.8985 23.1864C57.4106 23.2111 59.4055 23.9992 60.8339 25.5508C62.2624 27.1024 62.9766 29.245 62.9766 31.9542C62.9766 32.4467 62.5333 32.8408 62.0407 32.8408ZM58.9375 29.6883C58.3957 27.6442 57.0904 26.6344 54.9723 26.6098C54.5044 26.6098 54.0611 26.659 53.6178 26.8068C53.1991 26.93 52.805 27.1516 52.4602 27.4225C52.1154 27.6934 51.8199 28.0136 51.5736 28.383C51.3027 28.7771 51.1303 29.1958 51.0072 29.6637L58.9375 29.6883ZM80.8568 32.8408L69.5524 32.7669C69.6509 34.1215 70.0942 35.2051 70.9069 36.0179C71.7197 36.806 72.7541 37.2247 73.9855 37.2247C74.9706 37.2247 75.7834 37.003 76.4237 36.5597C76.8178 36.2888 77.2118 35.8947 77.6551 35.3283C78.2216 34.614 79.2314 34.417 80.0441 34.8357L80.1672 34.9096C81.177 35.4514 81.3987 36.7567 80.6598 37.6187C80.5367 37.7665 80.4135 37.9142 80.2658 38.0374C79.7239 38.6038 79.1082 39.121 78.4186 39.5151C77.7537 39.9092 77.0394 40.1801 76.3006 40.3525C75.5371 40.5249 74.7244 40.6234 73.8131 40.6234C71.2764 40.5987 69.2076 39.8106 67.6806 38.2098C66.1537 36.6089 65.3902 34.4909 65.4148 31.8557C65.4394 29.245 66.2029 27.127 67.7052 25.5261C69.2322 23.9499 71.2271 23.1618 73.7146 23.1864C76.2267 23.2111 78.2216 23.9992 79.65 25.5508C81.0785 27.1024 81.7927 29.245 81.7927 31.9542C81.7927 32.4467 81.374 32.8408 80.8568 32.8408ZM77.7537 29.6883C77.2118 27.6442 75.9065 26.6344 73.7885 26.6098C73.3205 26.6098 72.8772 26.659 72.4339 26.8068C71.5965 27.0777 70.8823 27.6196 70.3897 28.3584C70.1188 28.7525 69.9464 29.1711 69.8233 29.6391L77.7537 29.6883ZM102.628 14C103.737 14 104.623 14.8867 104.623 15.9703L104.549 24.6149C106.002 23.3835 107.579 23.0879 109.327 23.1126C111.051 23.1126 112.874 23.876 114.056 25.1075C115.066 26.1911 115.534 27.9151 115.534 30.2794L115.484 38.6777C115.484 39.7614 114.573 40.6234 113.465 40.6234C112.357 40.6234 111.445 39.7368 111.47 38.6531L111.519 30.6242C111.519 29.2697 111.298 28.2845 110.805 27.6934C110.312 27.0777 109.524 26.7822 108.416 26.7822C107.012 26.7822 106.002 27.2009 105.436 28.0136C104.87 28.8756 104.574 30.3287 104.549 32.4221L104.5 38.6531C104.5 39.7368 103.589 40.5988 102.456 40.5741C101.348 40.5741 100.461 39.6875 100.461 38.6038L100.633 15.9949C100.609 14.8374 101.52 13.9754 102.628 14ZM117.923 31.9295C117.947 29.5898 118.809 27.6196 120.558 25.9941C122.282 24.3686 124.4 23.5559 126.887 23.5805C129.375 23.6051 131.493 24.4425 133.217 26.0926C134.916 27.7427 135.754 29.7869 135.754 32.1758C135.729 34.614 134.867 36.6089 133.118 38.2591C131.37 39.8845 129.227 40.6726 126.715 40.648C124.203 40.6234 122.109 39.786 120.435 38.1113C118.735 36.4858 117.898 34.417 117.923 31.9295ZM121.863 32.028C121.863 33.6535 122.282 34.9096 123.169 35.8701C124.08 36.8306 125.287 37.3232 126.789 37.3232C128.291 37.3232 129.498 36.8799 130.409 35.944C131.321 35.0081 131.788 33.752 131.788 32.2005C131.788 30.6242 131.37 29.3682 130.459 28.4323C129.547 27.4718 128.34 26.9792 126.838 26.9792C125.36 26.9792 124.178 27.4472 123.242 28.383C122.356 29.2943 121.888 30.5257 121.863 32.028ZM96.0033 31.6833C97.2101 32.5699 97.8258 33.7274 97.8505 35.1312V35.1805C97.8505 36.9045 97.1855 38.3083 95.9048 39.2688C94.7473 40.1554 93.1464 40.6234 91.2747 40.6234C89.2798 40.6234 87.1863 40.0569 85.3638 39.0472C84.4033 38.53 84.1078 37.3232 84.7235 36.4119C85.0929 35.8947 85.684 35.5745 86.3244 35.5745C86.6692 35.5745 86.9893 35.6484 87.2602 35.8208C88.6394 36.5843 90.0679 37.003 91.3732 37.003C93.4173 37.003 93.639 36.0179 93.639 35.5745V35.5253C93.639 34.6633 92.4568 34.2446 90.5358 33.6782C90.4127 33.6289 90.2649 33.6043 90.1418 33.555C88.8611 33.2102 87.5311 32.7669 86.4968 32.028C85.2653 31.1414 84.6743 29.9839 84.6743 28.4569V28.4077C84.6743 25.3045 87.2849 23.1372 90.9791 23.1372C92.5307 23.1372 94.2547 23.5066 95.8063 24.2208C96.2742 24.4425 96.6683 24.8365 96.8407 25.3291C97.0131 25.8217 96.9392 26.3635 96.6929 26.8068C96.3481 27.3979 95.7078 27.7673 95.0182 27.7673C94.7473 27.7673 94.4517 27.7181 94.2055 27.5949C92.9987 27.0531 91.8658 26.7576 90.9052 26.7576C89.6985 26.7576 88.9103 27.2501 88.9103 28.0136V28.0629C88.9103 28.9495 90.4619 29.4421 92.1367 29.9593L92.4568 30.0578C93.639 30.4518 94.9443 30.9198 96.0033 31.6833Z" fill="#606B85"/>
</g>
</svg>
