<svg width="203" height="107" viewBox="0 0 203 107" fill="none" xmlns="http://www.w3.org/2000/svg">
<path d="M51.9392 63.6395C51.3977 63.377 51.2664 62.778 51.5454 61.8426C51.6767 61.3667 52.1608 59.0036 52.9977 54.7534C53.1454 54.0149 53.4654 53.6457 53.9577 53.6457C54.2695 53.6621 54.5074 53.8016 54.6715 54.0641C54.8356 54.3267 54.8767 54.6467 54.7946 55.0241C54.4172 57.2231 54.2285 58.3554 54.2285 58.4211C54.2285 58.5523 54.2859 58.6508 54.4008 58.7164C54.5156 58.7657 54.6305 58.7493 54.7454 58.6672C54.7618 58.6508 54.9341 58.4867 55.2623 58.1749C55.6069 57.8467 55.8531 57.6416 56.0008 57.5595C56.3126 57.379 56.6162 57.3298 56.9115 57.4118C57.2069 57.4939 57.4367 57.699 57.6008 58.0272C57.6828 58.1749 57.7485 58.4211 57.7977 58.7657C57.8633 59.0939 57.929 59.3811 57.9946 59.6272C58.0767 59.8734 58.1833 60.0047 58.3146 60.0211C58.4131 60.0375 58.5197 59.9882 58.6346 59.8734C58.7495 59.7585 58.8972 59.5288 59.0777 59.1841C59.2746 58.8395 59.4305 58.5441 59.5454 58.298C59.6767 58.0354 59.89 57.5923 60.1854 56.9688C60.2674 56.7882 60.3741 56.5585 60.5054 56.2795C60.6367 56.0005 60.7351 55.7872 60.8008 55.6395C60.8828 55.4918 60.9731 55.3113 61.0715 55.098C61.17 54.8847 61.2521 54.7205 61.3177 54.6057C61.3997 54.4908 61.4818 54.3677 61.5638 54.2364C61.6623 54.1052 61.7526 54.0149 61.8346 53.9657C61.9167 53.9 62.0069 53.8426 62.1054 53.7934C62.2038 53.7441 62.3023 53.7277 62.4008 53.7441C62.4992 53.7441 62.6059 53.7688 62.7208 53.818C62.9177 53.9164 63.0572 54.0723 63.1392 54.2857C63.2213 54.499 63.2295 54.7041 63.1638 54.9011C63.049 55.2621 62.3515 56.739 61.0715 59.3318C59.8079 61.9082 59.0777 63.3277 58.8808 63.5903C58.5854 64.0005 58.2244 64.1811 57.7977 64.1318C57.3874 64.0826 57.0921 63.8282 56.9115 63.3688C56.731 62.8929 56.5587 62.1626 56.3946 61.178C56.2633 60.3739 55.9023 60.2754 55.3115 60.8826C54.9669 61.2764 54.6551 61.6375 54.3762 61.9657C54.0972 62.2939 53.8838 62.5318 53.7362 62.6795C53.6049 62.8272 53.49 62.9585 53.3915 63.0734C53.2931 63.1882 53.2274 63.2703 53.1946 63.3195C53.1618 63.3523 53.129 63.3852 53.0962 63.418C52.7187 63.7462 52.3331 63.82 51.9392 63.6395ZM65.0688 63.8364C64.1662 63.7708 63.7149 63.2867 63.7149 62.3841C63.7149 61.8262 63.8298 61.0057 64.0595 59.9226C64.1744 59.4139 64.4041 58.577 64.7487 57.4118C65.0934 56.2303 65.3231 55.4918 65.438 55.1964C65.6677 54.6221 65.9221 54.2282 66.2011 54.0149C66.48 53.7852 66.8575 53.6785 67.3334 53.6949C67.8585 53.6949 68.277 53.7031 68.5887 53.7195C68.9005 53.7359 69.2534 53.777 69.6472 53.8426C70.0411 53.8918 70.3364 53.9903 70.5334 54.138C70.7303 54.2857 70.837 54.4826 70.8534 54.7288C70.9354 55.2375 70.64 55.5411 69.9672 55.6395C69.2944 55.738 68.6134 55.7052 67.9241 55.5411C67.4482 55.4918 67.1611 55.6641 67.0626 56.058C67.0298 56.2057 66.9723 56.4108 66.8903 56.6734C66.8246 56.9359 66.7754 57.1247 66.7426 57.2395C66.6277 57.5841 66.759 57.7811 67.1364 57.8303C67.2349 57.8467 67.399 57.8631 67.6287 57.8795C67.8585 57.8795 68.0062 57.8877 68.0718 57.9041C68.1539 57.9205 68.2688 57.9452 68.4164 57.978C68.5641 58.0108 68.6626 58.06 68.7118 58.1257C68.7775 58.1749 68.8349 58.2488 68.8841 58.3472C68.9498 58.4293 68.9908 58.5441 69.0072 58.6918C69.0072 58.8723 68.9744 59.0282 68.9088 59.1595C68.8595 59.2908 68.7857 59.3893 68.6872 59.4549C68.5888 59.5205 68.4493 59.578 68.2688 59.6272C68.1046 59.66 67.9488 59.6847 67.8011 59.7011C67.6534 59.7011 67.4564 59.7093 67.2103 59.7257C66.9641 59.7257 66.7672 59.7339 66.6195 59.7503C66.1929 59.7667 65.9303 59.9636 65.8318 60.3411C65.7826 60.5052 65.7252 60.8252 65.6595 61.3011C65.6267 61.7113 65.8318 61.9164 66.2749 61.9164C66.5703 61.9164 66.9067 61.8918 67.2841 61.8426C67.678 61.7934 67.9652 61.7688 68.1457 61.7688C68.3262 61.7523 68.4985 61.8016 68.6626 61.9164C68.8267 62.0149 68.9334 62.1954 68.9826 62.458C69.0646 62.8518 68.9005 63.1554 68.4903 63.3688C68.3098 63.4508 67.7518 63.5493 66.8164 63.6641C65.8811 63.779 65.2985 63.8364 65.0688 63.8364ZM84.9792 64.6488C84.7659 64.5831 84.61 64.4518 84.5115 64.2549C84.4131 64.058 84.4049 63.8282 84.4869 63.5657C84.6674 62.8272 85.0613 61.4077 85.6685 59.3072C85.8654 58.5688 85.8818 58.1421 85.7177 58.0272C85.5372 57.9123 85.2664 58.0847 84.9054 58.5441L83.8962 60.0211C83.4038 60.7103 82.9279 61.0467 82.4685 61.0303C82.2715 61.0139 82.1074 60.9564 81.9762 60.858C81.8449 60.7595 81.73 60.6118 81.6315 60.4149C81.5495 60.2016 81.4838 60.0129 81.4346 59.8488C81.4018 59.6847 81.3608 59.4467 81.3115 59.1349C81.2459 58.7575 81.1721 58.5523 81.09 58.5195C81.0408 58.5031 80.9915 58.4949 80.9423 58.4949C80.7618 58.4949 80.5977 58.7 80.45 59.1103C80.0233 60.2754 79.6459 61.4405 79.3177 62.6057C79.2192 63.0488 79.0715 63.3688 78.8746 63.5657C78.6777 63.7626 78.4397 63.8282 78.1608 63.7626C77.931 63.697 77.7423 63.5657 77.5946 63.3688C77.4633 63.1718 77.4141 62.9421 77.4469 62.6795C77.4962 62.1216 77.8244 60.9893 78.4315 59.2826C79.0387 57.5595 79.5721 56.1893 80.0315 55.1718C80.3433 54.4005 80.7618 54.0149 81.2869 54.0149C81.6151 54.0149 81.8941 54.179 82.1238 54.5072C82.3536 54.8354 82.5095 55.1636 82.5915 55.4918C82.69 55.82 82.7885 56.2549 82.8869 56.7964C82.9362 57.0918 83.0592 57.2559 83.2562 57.2888C83.4367 57.3052 83.6664 57.1329 83.9454 56.7718C84.4705 56.1482 85.0285 55.5739 85.6192 55.0488C86.21 54.5236 86.6941 54.2611 87.0715 54.2611C87.6295 54.2611 87.9905 54.6057 88.1546 55.2949C88.2695 55.82 88.13 56.8785 87.7362 58.4703C86.9485 61.7852 86.4069 63.7052 86.1115 64.2303C85.8326 64.6898 85.4551 64.8293 84.9792 64.6488ZM94.739 64.4026C94.6406 64.3862 94.5585 64.3698 94.4929 64.3534C94.4272 64.3205 94.3616 64.2795 94.296 64.2303C94.2467 64.1811 94.2057 64.14 94.1729 64.1072C94.1401 64.058 94.1072 63.9923 94.0744 63.9103C94.058 63.8118 94.0416 63.738 94.0252 63.6888C94.0252 63.6395 94.017 63.5575 94.0006 63.4426C94.0006 63.3113 94.0006 63.2211 94.0006 63.1718C94.0006 63.1062 94.0006 62.9995 94.0006 62.8518C94.0006 62.6877 94.0006 62.5729 94.0006 62.5072C94.0334 62.1298 93.8693 61.9247 93.5083 61.8918L91.9329 61.818C91.6867 61.818 91.4734 61.9575 91.2929 62.2364C90.6037 63.3195 90.1852 63.9267 90.0375 64.058C89.6929 64.3041 89.3401 64.3041 88.979 64.058C88.4867 63.7462 88.4867 63.2129 88.979 62.458L91.0467 59.0118C91.5226 58.2077 92.179 57.2723 93.016 56.2057C93.8693 55.1226 94.5011 54.458 94.9113 54.2118C95.3052 53.9821 95.6662 53.9493 95.9944 54.1134C96.339 54.2611 96.5442 54.5482 96.6098 54.9749C96.6754 55.4508 96.577 56.9113 96.3144 59.3564C96.0519 61.7852 95.8467 63.2621 95.699 63.7872C95.6334 64.0005 95.5103 64.1647 95.3298 64.2795C95.1657 64.3944 94.9688 64.4354 94.739 64.4026ZM93.7298 60.0457C94.1237 60.0457 94.3452 59.8652 94.3944 59.5041C94.4765 58.897 94.5175 58.5031 94.5175 58.3226C94.5175 58.1421 94.4601 58.0354 94.3452 58.0026C94.099 57.8877 93.779 58.1011 93.3852 58.6426C93.0078 59.1841 92.8847 59.5698 93.016 59.7995C93.0816 59.9636 93.3196 60.0457 93.7298 60.0457ZM104 64.4272C103.656 64.5749 103.328 64.5175 103.016 64.2549C102.884 64.1236 102.4 63.377 101.563 62.0149L101.071 61.2272C100.956 61.0631 100.817 60.9975 100.653 61.0303C100.505 61.0467 100.398 61.137 100.333 61.3011C99.8076 62.5647 99.504 63.2539 99.4219 63.3688C99.1922 63.7298 98.864 63.8364 98.4373 63.6888C97.8629 63.459 97.7317 62.9093 98.0435 62.0395C99.5532 58.2816 100.324 56.3698 100.357 56.3041C100.964 54.7944 101.383 53.9493 101.613 53.7688C101.908 53.5554 102.212 53.5144 102.523 53.6457C102.852 53.7934 103.016 54.0805 103.016 54.5072C103.016 54.6057 102.926 54.8682 102.745 55.2949C102.564 55.7216 102.4 56.1318 102.253 56.5257C102.121 56.9031 102.089 57.1247 102.154 57.1903C102.171 57.2067 102.589 56.7964 103.41 55.9595C104.23 55.1062 104.722 54.5811 104.887 54.3841C105.1 54.1052 105.297 53.9329 105.477 53.8672C105.658 53.7852 105.871 53.7852 106.117 53.8672C106.446 54.0149 106.626 54.2857 106.659 54.6795C106.659 55.0734 106.355 55.5739 105.748 56.1811C105.157 56.7882 104.468 57.3954 103.68 58.0026C102.893 58.5934 102.474 58.9134 102.425 58.9626C102.162 59.1923 102.121 59.4467 102.302 59.7257C103.697 61.9411 104.411 63.1964 104.443 63.4918C104.493 63.9349 104.345 64.2467 104 64.4272ZM108.506 63.8364C107.604 63.7708 107.152 63.2867 107.152 62.3841C107.152 61.8262 107.267 61.0057 107.497 59.9226C107.612 59.4139 107.842 58.577 108.186 57.4118C108.531 56.2303 108.761 55.4918 108.875 55.1964C109.105 54.6221 109.36 54.2282 109.639 54.0149C109.918 53.7852 110.295 53.6785 110.771 53.6949C111.296 53.6949 111.714 53.7031 112.026 53.7195C112.338 53.7359 112.691 53.777 113.085 53.8426C113.479 53.8918 113.774 53.9903 113.971 54.138C114.168 54.2857 114.274 54.4826 114.291 54.7288C114.373 55.2375 114.078 55.5411 113.405 55.6395C112.732 55.738 112.051 55.7052 111.362 55.5411C110.886 55.4918 110.599 55.6641 110.5 56.058C110.467 56.2057 110.41 56.4108 110.328 56.6734C110.262 56.9359 110.213 57.1247 110.18 57.2395C110.065 57.5841 110.197 57.7811 110.574 57.8303C110.672 57.8467 110.837 57.8631 111.066 57.8795C111.296 57.8795 111.444 57.8877 111.509 57.9041C111.591 57.9205 111.706 57.9452 111.854 57.978C112.002 58.0108 112.1 58.06 112.149 58.1257C112.215 58.1749 112.272 58.2488 112.322 58.3472C112.387 58.4293 112.428 58.5441 112.445 58.6918C112.445 58.8723 112.412 59.0282 112.346 59.1595C112.297 59.2908 112.223 59.3893 112.125 59.4549C112.026 59.5205 111.887 59.578 111.706 59.6272C111.542 59.66 111.386 59.6847 111.239 59.7011C111.091 59.7011 110.894 59.7093 110.648 59.7257C110.402 59.7257 110.205 59.7339 110.057 59.7503C109.63 59.7667 109.368 59.9636 109.269 60.3411C109.22 60.5052 109.163 60.8252 109.097 61.3011C109.064 61.7113 109.269 61.9164 109.712 61.9164C110.008 61.9164 110.344 61.8918 110.722 61.8426C111.115 61.7934 111.403 61.7688 111.583 61.7688C111.764 61.7523 111.936 61.8016 112.1 61.9164C112.264 62.0149 112.371 62.1954 112.42 62.458C112.502 62.8518 112.338 63.1554 111.928 63.3688C111.747 63.4508 111.189 63.5493 110.254 63.6641C109.319 63.779 108.736 63.8364 108.506 63.8364ZM124.527 64.0088C124.035 63.7462 123.929 63.2621 124.207 62.5564C124.536 61.6703 124.93 60.4231 125.389 58.8149C125.849 57.2067 126.078 56.2139 126.078 55.8364C126.078 55.5575 125.955 55.418 125.709 55.418C125.2 55.418 124.552 55.459 123.764 55.5411C122.977 55.6231 122.517 55.6641 122.386 55.6641C122.058 55.6641 121.836 55.459 121.721 55.0488C121.639 54.8026 121.689 54.5647 121.869 54.3349C122.066 54.0888 122.32 53.9411 122.632 53.8918C123.485 53.7277 124.388 53.6211 125.34 53.5718C126.308 53.5226 128.006 53.5062 130.435 53.5226C131.387 53.5226 131.863 53.818 131.863 54.4088C131.863 54.6221 131.789 54.819 131.641 54.9995C131.494 55.1636 131.305 55.2539 131.075 55.2703C130.484 55.3195 129.853 55.3441 129.18 55.3441C128.704 55.3441 128.4 55.3934 128.269 55.4918C128.154 55.5903 128.031 55.8693 127.9 56.3288C127.145 59.4467 126.48 61.7523 125.906 63.2457C125.758 63.6067 125.553 63.8611 125.291 64.0088C125.044 64.14 124.79 64.14 124.527 64.0088ZM136.385 63.9349C135.811 63.7544 135.638 63.2703 135.868 62.4826L136.163 61.6211C136.295 61.1944 136.319 60.9154 136.237 60.7841C136.155 60.6529 135.893 60.579 135.45 60.5626C134.957 60.5298 134.58 60.5134 134.317 60.5134C133.94 60.4805 133.677 60.6611 133.53 61.0549C133.07 62.4826 132.783 63.2949 132.668 63.4918C132.455 63.8693 132.11 63.9841 131.634 63.8364C131.208 63.6888 131.019 63.3852 131.068 62.9257C131.101 62.5647 131.544 61.1452 132.397 58.6672C133.267 56.1729 133.809 54.8026 134.022 54.5564C134.301 54.2447 134.637 54.1544 135.031 54.2857C135.409 54.4498 135.573 54.7534 135.523 55.1964C135.507 55.3934 135.212 56.2877 134.637 57.8795C134.457 58.4047 134.646 58.6754 135.203 58.6918H136.582C136.648 58.6918 136.705 58.6918 136.754 58.6918C136.803 58.6754 136.844 58.659 136.877 58.6426C136.91 58.6262 136.943 58.6098 136.976 58.5934C137.025 58.5605 137.058 58.5359 137.074 58.5195C137.107 58.5031 137.132 58.4703 137.148 58.4211C137.181 58.3554 137.206 58.3144 137.222 58.298C137.238 58.2652 137.255 58.2159 137.271 58.1503C137.304 58.0682 137.329 58.0108 137.345 57.978C137.361 57.9452 137.386 57.8795 137.419 57.7811C137.452 57.6826 137.476 57.6088 137.493 57.5595C138.182 55.7708 138.6 54.7534 138.748 54.5072C139.043 54.0313 139.421 53.8918 139.88 54.0888C140.422 54.3349 140.545 54.8354 140.25 55.5903L138.65 59.9718C138.518 60.3657 138.338 60.8908 138.108 61.5472C137.763 62.5975 137.484 63.2867 137.271 63.6149C137.074 63.9431 136.779 64.0498 136.385 63.9349ZM142.225 63.8364C141.322 63.7708 140.871 63.2867 140.871 62.3841C140.871 61.8262 140.986 61.0057 141.216 59.9226C141.331 59.4139 141.56 58.577 141.905 57.4118C142.25 56.2303 142.479 55.4918 142.594 55.1964C142.824 54.6221 143.078 54.2282 143.357 54.0149C143.636 53.7852 144.014 53.6785 144.49 53.6949C145.015 53.6949 145.433 53.7031 145.745 53.7195C146.057 53.7359 146.41 53.777 146.803 53.8426C147.197 53.8918 147.493 53.9903 147.69 54.138C147.887 54.2857 147.993 54.4826 148.01 54.7288C148.092 55.2375 147.796 55.5411 147.123 55.6395C146.451 55.738 145.77 55.7052 145.08 55.5411C144.604 55.4918 144.317 55.6641 144.219 56.058C144.186 56.2057 144.129 56.4108 144.047 56.6734C143.981 56.9359 143.932 57.1247 143.899 57.2395C143.784 57.5841 143.915 57.7811 144.293 57.8303C144.391 57.8467 144.555 57.8631 144.785 57.8795C145.015 57.8795 145.162 57.8877 145.228 57.9041C145.31 57.9205 145.425 57.9452 145.573 57.978C145.72 58.0108 145.819 58.06 145.868 58.1257C145.934 58.1749 145.991 58.2488 146.04 58.3472C146.106 58.4293 146.147 58.5441 146.163 58.6918C146.163 58.8723 146.131 59.0282 146.065 59.1595C146.016 59.2908 145.942 59.3893 145.843 59.4549C145.745 59.5205 145.606 59.578 145.425 59.6272C145.261 59.66 145.105 59.6847 144.957 59.7011C144.81 59.7011 144.613 59.7093 144.367 59.7257C144.12 59.7257 143.923 59.7339 143.776 59.7503C143.349 59.7667 143.087 59.9636 142.988 60.3411C142.939 60.5052 142.881 60.8252 142.816 61.3011C142.783 61.7113 142.988 61.9164 143.431 61.9164C143.727 61.9164 144.063 61.8918 144.44 61.8426C144.834 61.7934 145.121 61.7688 145.302 61.7688C145.482 61.7523 145.655 61.8016 145.819 61.9164C145.983 62.0149 146.09 62.1954 146.139 62.458C146.221 62.8518 146.057 63.1554 145.647 63.3688C145.466 63.4508 144.908 63.5493 143.973 63.6641C143.037 63.779 142.455 63.8364 142.225 63.8364ZM148.513 60.7595C148.858 59.8898 149.276 58.6754 149.768 57.1164L150.482 54.778C150.728 54.2529 151.073 54.0477 151.516 54.1626C152.091 54.2775 152.271 54.8272 152.058 55.8118C151.976 56.2057 151.861 56.6323 151.713 57.0918C151.582 57.5513 151.459 57.9452 151.344 58.2734C151.245 58.5852 151.098 59.0036 150.901 59.5288C150.72 60.0375 150.581 60.4313 150.482 60.7103C150.006 62.1052 149.695 62.9093 149.547 63.1226C149.301 63.5329 148.989 63.6723 148.612 63.5411C147.988 63.377 147.857 62.737 148.218 61.6211C148.251 61.539 148.349 61.2518 148.513 60.7595ZM153.366 63.5903C153.268 63.5739 153.178 63.5575 153.095 63.5411C153.03 63.5082 152.972 63.4672 152.923 63.418C152.874 63.3688 152.825 63.3195 152.775 63.2703C152.743 63.2211 152.718 63.1554 152.702 63.0734C152.685 62.9749 152.669 62.9011 152.652 62.8518C152.652 62.8026 152.652 62.7205 152.652 62.6057C152.669 62.4744 152.677 62.3841 152.677 62.3349C152.677 62.2857 152.685 62.1954 152.702 62.0641C152.718 61.9164 152.726 61.818 152.726 61.7688C152.89 60.3739 153.333 58.3226 154.055 55.6149C154.285 54.778 154.835 54.2611 155.705 54.0641C156.574 53.8508 157.42 53.9411 158.24 54.3349C159.011 54.5975 159.528 55.0405 159.791 55.6641C160.053 56.2713 159.98 56.8949 159.569 57.5349C159.471 57.699 159.364 57.8467 159.249 57.978C159.134 58.0929 159.028 58.1831 158.929 58.2488C158.847 58.3144 158.7 58.4129 158.486 58.5441C158.273 58.6754 158.101 58.7821 157.969 58.8641C157.559 59.1267 157.567 59.4139 157.994 59.7257C158.732 60.2016 159.495 60.7595 160.283 61.3995C161.005 61.9739 161.342 62.4744 161.292 62.9011C161.276 63.3441 161.087 63.6067 160.726 63.6888C160.382 63.7544 160.004 63.6149 159.594 63.2703C159.184 62.8764 158.486 62.3267 157.502 61.6211C156.533 60.9154 155.869 60.4723 155.508 60.2918C155.327 60.2098 155.163 60.2016 155.015 60.2672C154.868 60.3164 154.786 60.4313 154.769 60.6118C154.753 60.6775 154.728 60.858 154.695 61.1534C154.663 61.4323 154.63 61.6293 154.597 61.7441C154.581 61.859 154.548 62.0477 154.499 62.3103C154.449 62.5564 154.392 62.737 154.326 62.8518C154.261 62.9667 154.179 63.098 154.08 63.2457C153.998 63.3934 153.891 63.4918 153.76 63.5411C153.645 63.5903 153.514 63.6067 153.366 63.5903ZM155.655 57.4118C155.82 57.658 156.254 57.6252 156.96 57.3134C157.617 57.0672 157.92 56.78 157.871 56.4518C157.822 56.14 157.502 55.9431 156.911 55.8611C156.337 55.779 155.992 55.8693 155.877 56.1318C155.582 56.7554 155.508 57.1821 155.655 57.4118ZM169.295 63.8857C168.721 63.82 168.434 63.4754 168.434 62.8518C168.434 62.2611 168.786 61.0385 169.492 59.1841L170.452 56.378C170.6 55.9841 170.698 55.7134 170.747 55.5657C170.813 55.418 170.903 55.2129 171.018 54.9503C171.15 54.6877 171.256 54.5236 171.338 54.458C171.42 54.3759 171.535 54.2857 171.683 54.1872C171.831 54.0888 171.986 54.0477 172.151 54.0641C172.331 54.0805 172.536 54.1298 172.766 54.2118C174.555 54.7862 175.769 55.8529 176.409 57.4118C176.951 58.8231 176.762 60.1031 175.843 61.2518C174.103 63.3523 171.921 64.2303 169.295 63.8857ZM171.289 62.0641C172.208 61.818 173.02 61.4077 173.726 60.8334C174.432 60.2426 174.801 59.5862 174.834 58.8641C174.834 58.3718 174.645 57.8631 174.267 57.338C173.89 56.8129 173.463 56.4682 172.988 56.3041C172.676 56.1729 172.43 56.3616 172.249 56.8703C172.2 57.0016 172.036 57.4611 171.757 58.2488C171.494 59.02 171.248 59.7339 171.018 60.3903C170.789 61.0467 170.665 61.4077 170.649 61.4734C170.616 61.7031 170.657 61.8754 170.772 61.9903C170.887 62.0888 171.059 62.1134 171.289 62.0641ZM182.739 64.4026C182.641 64.3862 182.559 64.3698 182.493 64.3534C182.427 64.3205 182.362 64.2795 182.296 64.2303C182.247 64.1811 182.206 64.14 182.173 64.1072C182.14 64.058 182.107 63.9923 182.074 63.9103C182.058 63.8118 182.042 63.738 182.025 63.6888C182.025 63.6395 182.017 63.5575 182.001 63.4426C182.001 63.3113 182.001 63.2211 182.001 63.1718C182.001 63.1062 182.001 62.9995 182.001 62.8518C182.001 62.6877 182.001 62.5729 182.001 62.5072C182.033 62.1298 181.869 61.9247 181.508 61.8918L179.933 61.818C179.687 61.818 179.473 61.9575 179.293 62.2364C178.604 63.3195 178.185 63.9267 178.038 64.058C177.693 64.3041 177.34 64.3041 176.979 64.058C176.487 63.7462 176.487 63.2129 176.979 62.458L179.047 59.0118C179.523 58.2077 180.179 57.2723 181.016 56.2057C181.869 55.1226 182.501 54.458 182.911 54.2118C183.305 53.9821 183.666 53.9493 183.994 54.1134C184.339 54.2611 184.544 54.5482 184.61 54.9749C184.675 55.4508 184.577 56.9113 184.314 59.3564C184.052 61.7852 183.847 63.2621 183.699 63.7872C183.633 64.0005 183.51 64.1647 183.33 64.2795C183.166 64.3944 182.969 64.4354 182.739 64.4026ZM181.73 60.0457C182.124 60.0457 182.345 59.8652 182.394 59.5041C182.476 58.897 182.517 58.5031 182.517 58.3226C182.517 58.1421 182.46 58.0354 182.345 58.0026C182.099 57.8877 181.779 58.1011 181.385 58.6426C181.008 59.1841 180.885 59.5698 181.016 59.7995C181.082 59.9636 181.32 60.0457 181.73 60.0457ZM188.009 68.8334C187.73 68.899 187.484 68.8498 187.27 68.6857C187.057 68.538 186.942 68.3329 186.926 68.0703C186.909 67.9718 186.909 67.8652 186.926 67.7503C186.959 67.6354 187.016 67.4795 187.098 67.2826C187.18 67.0857 187.262 66.8805 187.344 66.6672C187.443 66.4539 187.574 66.1339 187.738 65.7072C187.919 65.297 188.091 64.8703 188.255 64.4272C188.452 63.9513 188.427 63.5739 188.181 63.2949C188.132 63.2293 188.017 62.819 187.837 62.0641C187.656 61.3093 187.443 60.4231 187.197 59.4057C186.967 58.3882 186.77 57.6252 186.606 57.1164C186.13 55.7216 186.31 55.0241 187.147 55.0241C187.295 55.0241 187.418 55.0488 187.517 55.098C187.631 55.1308 187.73 55.2129 187.812 55.3441C187.91 55.459 187.992 55.5821 188.058 55.7134C188.124 55.8447 188.189 56.0252 188.255 56.2549C188.337 56.4847 188.403 56.6898 188.452 56.8703C188.501 57.0508 188.559 57.3052 188.624 57.6334C188.706 57.9452 188.78 58.2077 188.846 58.4211C189.059 59.2416 189.223 59.7913 189.338 60.0703C189.453 60.3493 189.609 60.4641 189.806 60.4149C189.986 60.3493 190.183 60.0539 190.397 59.5288C190.84 58.5113 191.348 57.4447 191.923 56.3288C192.497 55.1964 192.866 54.5482 193.03 54.3841C193.326 54.0559 193.67 53.9739 194.064 54.138C194.606 54.4005 194.671 54.9503 194.261 55.7872C193.67 56.9195 193.088 58.1093 192.513 59.3564C191.956 60.6036 191.316 62.0641 190.593 63.738C189.888 65.4118 189.371 66.6262 189.043 67.3811C188.813 67.8898 188.632 68.2426 188.501 68.4395C188.37 68.6529 188.206 68.7841 188.009 68.8334ZM58.9256 97.1318C58.1871 97.1318 57.6292 96.9431 57.2517 96.5657C56.8907 96.1882 56.7512 95.6877 56.8333 95.0641C57.4897 91.339 57.9984 89.0088 58.3594 88.0734C58.5563 87.499 58.9174 87.1462 59.4425 87.0149C61.0179 86.6539 62.3799 86.9247 63.5287 87.8272C64.0046 88.2047 64.2589 88.6313 64.2917 89.1072C64.341 89.5831 64.1687 90.0344 63.7748 90.4611C63.2825 91.019 63.2415 91.6016 63.6517 92.2088C63.8979 92.6518 63.9553 93.1605 63.824 93.7349C63.7092 94.3093 63.4876 94.7688 63.1594 95.1134C61.9122 96.459 60.501 97.1318 58.9256 97.1318ZM59.8363 90.3872C60.0169 90.617 60.4517 90.5595 61.141 90.2149C61.8302 89.8703 62.142 89.5421 62.0763 89.2303C62.0107 88.9513 61.6825 88.779 61.0917 88.7134C60.501 88.6313 60.1563 88.7216 60.0579 88.9841C59.7461 89.6405 59.6722 90.1082 59.8363 90.3872ZM59.344 95.2611C59.7051 95.2447 60.1317 95.1052 60.624 94.8426C61.1328 94.5636 61.502 94.26 61.7317 93.9318C62.0271 93.62 62.1174 93.3411 62.0025 93.0949C61.8876 92.8488 61.6004 92.7257 61.141 92.7257C60.3861 92.7257 59.9102 92.7421 59.7133 92.7749C59.5163 92.7913 59.344 92.8652 59.1963 92.9964C58.983 93.2098 58.8599 93.5872 58.8271 94.1288C58.7451 94.4898 58.7287 94.7688 58.7779 94.9657C58.8271 95.1626 59.0158 95.2611 59.344 95.2611ZM66.6625 96.8364C65.7599 96.7708 65.3087 96.2867 65.3087 95.3841C65.3087 94.8262 65.4235 94.0057 65.6533 92.9226C65.7681 92.4139 65.9979 91.577 66.3425 90.4118C66.6871 89.2303 66.9169 88.4918 67.0317 88.1964C67.2615 87.6221 67.5158 87.2282 67.7948 87.0149C68.0738 86.7852 68.4512 86.6785 68.9271 86.6949C69.4522 86.6949 69.8707 86.7031 70.1825 86.7195C70.4943 86.7359 70.8471 86.777 71.241 86.8426C71.6348 86.8918 71.9302 86.9903 72.1271 87.138C72.324 87.2857 72.4307 87.4826 72.4471 87.7288C72.5292 88.2375 72.2338 88.5411 71.561 88.6395C70.8881 88.738 70.2071 88.7052 69.5179 88.5411C69.042 88.4918 68.7548 88.6641 68.6563 89.058C68.6235 89.2057 68.5661 89.4108 68.484 89.6734C68.4184 89.9359 68.3692 90.1247 68.3363 90.2395C68.2215 90.5841 68.3528 90.7811 68.7302 90.8303C68.8287 90.8467 68.9928 90.8631 69.2225 90.8795C69.4522 90.8795 69.5999 90.8877 69.6656 90.9041C69.7476 90.9205 69.8625 90.9452 70.0102 90.978C70.1579 91.0108 70.2563 91.06 70.3056 91.1257C70.3712 91.1749 70.4287 91.2488 70.4779 91.3472C70.5435 91.4293 70.5846 91.5441 70.601 91.6918C70.601 91.8723 70.5681 92.0282 70.5025 92.1595C70.4533 92.2908 70.3794 92.3893 70.281 92.4549C70.1825 92.5205 70.043 92.578 69.8625 92.6272C69.6984 92.66 69.5425 92.6847 69.3948 92.7011C69.2471 92.7011 69.0502 92.7093 68.804 92.7257C68.5579 92.7257 68.361 92.7339 68.2133 92.7503C67.7866 92.7667 67.524 92.9636 67.4256 93.3411C67.3763 93.5052 67.3189 93.8252 67.2533 94.3011C67.2204 94.7113 67.4256 94.9164 67.8687 94.9164C68.164 94.9164 68.5004 94.8918 68.8779 94.8426C69.2717 94.7934 69.5589 94.7688 69.7394 94.7688C69.9199 94.7523 70.0922 94.8016 70.2563 94.9164C70.4204 95.0149 70.5271 95.1954 70.5763 95.458C70.6584 95.8518 70.4943 96.1554 70.084 96.3688C69.9035 96.4508 69.3456 96.5493 68.4102 96.6641C67.4748 96.779 66.8922 96.8364 66.6625 96.8364ZM76.0275 97.0088C75.5352 96.7462 75.4285 96.2621 75.7075 95.5564C76.0357 94.6703 76.4296 93.4231 76.889 91.8149C77.3485 90.2067 77.5783 89.2139 77.5783 88.8364C77.5783 88.5575 77.4552 88.418 77.209 88.418C76.7003 88.418 76.0521 88.459 75.2644 88.5411C74.4767 88.6231 74.0172 88.6641 73.886 88.6641C73.5578 88.6641 73.3362 88.459 73.2213 88.0488C73.1393 87.8026 73.1885 87.5647 73.369 87.3349C73.566 87.0888 73.8203 86.9411 74.1321 86.8918C74.9854 86.7277 75.888 86.6211 76.8398 86.5718C77.808 86.5226 79.5065 86.5062 81.9352 86.5226C82.887 86.5226 83.3629 86.818 83.3629 87.4088C83.3629 87.6221 83.289 87.819 83.1413 87.9995C82.9937 88.1636 82.8049 88.2539 82.5752 88.2703C81.9844 88.3195 81.3526 88.3441 80.6798 88.3441C80.2039 88.3441 79.9003 88.3934 79.769 88.4918C79.6542 88.5903 79.5311 88.8693 79.3998 89.3288C78.6449 92.4467 77.9803 94.7523 77.406 96.2457C77.2583 96.6067 77.0531 96.8611 76.7906 97.0088C76.5444 97.14 76.2901 97.14 76.0275 97.0088ZM87.4337 97.0088C86.9414 96.7462 86.8348 96.2621 87.1137 95.5564C87.442 94.6703 87.8358 93.4231 88.2953 91.8149C88.7548 90.2067 88.9845 89.2139 88.9845 88.8364C88.9845 88.5575 88.8614 88.418 88.6153 88.418C88.1066 88.418 87.4584 88.459 86.6707 88.5411C85.883 88.6231 85.4235 88.6641 85.2922 88.6641C84.964 88.6641 84.7425 88.459 84.6276 88.0488C84.5455 87.8026 84.5948 87.5647 84.7753 87.3349C84.9722 87.0888 85.2266 86.9411 85.5384 86.8918C86.3917 86.7277 87.2943 86.6211 88.2461 86.5718C89.2143 86.5226 90.9127 86.5062 93.3414 86.5226C94.2932 86.5226 94.7691 86.818 94.7691 87.4088C94.7691 87.6221 94.6953 87.819 94.5476 87.9995C94.3999 88.1636 94.2112 88.2539 93.9814 88.2703C93.3907 88.3195 92.7589 88.3441 92.0861 88.3441C91.6102 88.3441 91.3066 88.3934 91.1753 88.4918C91.0604 88.5903 90.9373 88.8693 90.8061 89.3288C90.0512 92.4467 89.3866 94.7523 88.8122 96.2457C88.6645 96.6067 88.4594 96.8611 88.1968 97.0088C87.9507 97.14 87.6963 97.14 87.4337 97.0088ZM95.85 96.8364C94.9474 96.7708 94.4962 96.2867 94.4962 95.3841C94.4962 94.8262 94.611 94.0057 94.8408 92.9226C94.9556 92.4139 95.1854 91.577 95.53 90.4118C95.8746 89.2303 96.1044 88.4918 96.2192 88.1964C96.449 87.6221 96.7033 87.2282 96.9823 87.0149C97.2613 86.7852 97.6387 86.6785 98.1146 86.6949C98.6397 86.6949 99.0582 86.7031 99.37 86.7195C99.6818 86.7359 100.035 86.777 100.428 86.8426C100.822 86.8918 101.118 86.9903 101.315 87.138C101.512 87.2857 101.618 87.4826 101.635 87.7288C101.717 88.2375 101.421 88.5411 100.748 88.6395C100.076 88.738 99.3946 88.7052 98.7054 88.5411C98.2295 88.4918 97.9423 88.6641 97.8438 89.058C97.811 89.2057 97.7536 89.4108 97.6715 89.6734C97.6059 89.9359 97.5567 90.1247 97.5238 90.2395C97.409 90.5841 97.5403 90.7811 97.9177 90.8303C98.0162 90.8467 98.1803 90.8631 98.41 90.8795C98.6397 90.8795 98.7874 90.8877 98.8531 90.9041C98.9351 90.9205 99.05 90.9452 99.1977 90.978C99.3454 91.0108 99.4438 91.06 99.4931 91.1257C99.5587 91.1749 99.6162 91.2488 99.6654 91.3472C99.731 91.4293 99.7721 91.5441 99.7885 91.6918C99.7885 91.8723 99.7556 92.0282 99.69 92.1595C99.6408 92.2908 99.5669 92.3893 99.4685 92.4549C99.37 92.5205 99.2305 92.578 99.05 92.6272C98.8859 92.66 98.73 92.6847 98.5823 92.7011C98.4346 92.7011 98.2377 92.7093 97.9915 92.7257C97.7454 92.7257 97.5485 92.7339 97.4008 92.7503C96.9741 92.7667 96.7115 92.9636 96.6131 93.3411C96.5638 93.5052 96.5064 93.8252 96.4408 94.3011C96.4079 94.7113 96.6131 94.9164 97.0562 94.9164C97.3515 94.9164 97.6879 94.8918 98.0654 94.8426C98.4592 94.7934 98.7464 94.7688 98.9269 94.7688C99.1074 94.7523 99.2797 94.8016 99.4438 94.9164C99.6079 95.0149 99.7146 95.1954 99.7638 95.458C99.8459 95.8518 99.6818 96.1554 99.2715 96.3688C99.091 96.4508 98.5331 96.5493 97.5977 96.6641C96.6623 96.779 96.0797 96.8364 95.85 96.8364ZM102.335 96.5903C102.237 96.5739 102.146 96.5575 102.064 96.5411C101.999 96.5082 101.941 96.4672 101.892 96.418C101.843 96.3688 101.793 96.3195 101.744 96.2703C101.711 96.2211 101.687 96.1554 101.67 96.0734C101.654 95.9749 101.638 95.9011 101.621 95.8518C101.621 95.8026 101.621 95.7205 101.621 95.6057C101.638 95.4744 101.646 95.3841 101.646 95.3349C101.646 95.2857 101.654 95.1954 101.67 95.0641C101.687 94.9164 101.695 94.818 101.695 94.7688C101.859 93.3739 102.302 91.3226 103.024 88.6149C103.254 87.778 103.804 87.2611 104.673 87.0641C105.543 86.8508 106.388 86.9411 107.209 87.3349C107.98 87.5975 108.497 88.0405 108.76 88.6641C109.022 89.2713 108.948 89.8949 108.538 90.5349C108.44 90.699 108.333 90.8467 108.218 90.978C108.103 91.0929 107.997 91.1831 107.898 91.2488C107.816 91.3144 107.668 91.4129 107.455 91.5441C107.242 91.6754 107.069 91.7821 106.938 91.8641C106.528 92.1267 106.536 92.4139 106.963 92.7257C107.701 93.2016 108.464 93.7595 109.252 94.3995C109.974 94.9739 110.31 95.4744 110.261 95.9011C110.245 96.3441 110.056 96.6067 109.695 96.6888C109.35 96.7544 108.973 96.6149 108.563 96.2703C108.152 95.8764 107.455 95.3267 106.47 94.6211C105.502 93.9154 104.838 93.4723 104.477 93.2918C104.296 93.2098 104.132 93.2016 103.984 93.2672C103.837 93.3164 103.754 93.4313 103.738 93.6118C103.722 93.6775 103.697 93.858 103.664 94.1534C103.631 94.4323 103.599 94.6293 103.566 94.7441C103.549 94.859 103.517 95.0477 103.467 95.3103C103.418 95.5564 103.361 95.737 103.295 95.8518C103.229 95.9667 103.147 96.098 103.049 96.2457C102.967 96.3934 102.86 96.4918 102.729 96.5411C102.614 96.5903 102.483 96.6067 102.335 96.5903ZM104.624 90.4118C104.788 90.658 105.223 90.6252 105.929 90.3134C106.585 90.0672 106.889 89.78 106.84 89.4518C106.79 89.14 106.47 88.9431 105.88 88.8611C105.305 88.779 104.961 88.8693 104.846 89.1318C104.55 89.7554 104.477 90.1821 104.624 90.4118ZM110.943 100.012C110.631 99.6836 110.598 99.3554 110.845 99.0272C111.386 98.3708 111.657 97.6077 111.657 96.738C111.657 96.2949 111.895 96.0323 112.371 95.9503C112.748 95.8847 113.019 95.9913 113.183 96.2703C113.347 96.5493 113.429 96.9349 113.429 97.4272C113.429 98.2477 113.191 98.9698 112.715 99.5934C112.436 99.9708 112.133 100.192 111.805 100.258C111.476 100.34 111.189 100.258 110.943 100.012ZM124.35 96.8364C123.447 96.7708 122.996 96.2867 122.996 95.3841C122.996 94.8262 123.111 94.0057 123.341 92.9226C123.456 92.4139 123.685 91.577 124.03 90.4118C124.375 89.2303 124.604 88.4918 124.719 88.1964C124.949 87.6221 125.203 87.2282 125.482 87.0149C125.761 86.7852 126.139 86.6785 126.615 86.6949C127.14 86.6949 127.558 86.7031 127.87 86.7195C128.182 86.7359 128.535 86.777 128.928 86.8426C129.322 86.8918 129.618 86.9903 129.815 87.138C130.012 87.2857 130.118 87.4826 130.135 87.7288C130.217 88.2375 129.921 88.5411 129.248 88.6395C128.576 88.738 127.895 88.7052 127.205 88.5411C126.729 88.4918 126.442 88.6641 126.344 89.058C126.311 89.2057 126.254 89.4108 126.172 89.6734C126.106 89.9359 126.057 90.1247 126.024 90.2395C125.909 90.5841 126.04 90.7811 126.418 90.8303C126.516 90.8467 126.68 90.8631 126.91 90.8795C127.14 90.8795 127.287 90.8877 127.353 90.9041C127.435 90.9205 127.55 90.9452 127.698 90.978C127.845 91.0108 127.944 91.06 127.993 91.1257C128.059 91.1749 128.116 91.2488 128.165 91.3472C128.231 91.4293 128.272 91.5441 128.288 91.6918C128.288 91.8723 128.256 92.0282 128.19 92.1595C128.141 92.2908 128.067 92.3893 127.968 92.4549C127.87 92.5205 127.731 92.578 127.55 92.6272C127.386 92.66 127.23 92.6847 127.082 92.7011C126.935 92.7011 126.738 92.7093 126.492 92.7257C126.245 92.7257 126.048 92.7339 125.901 92.7503C125.474 92.7667 125.212 92.9636 125.113 93.3411C125.064 93.5052 125.006 93.8252 124.941 94.3011C124.908 94.7113 125.113 94.9164 125.556 94.9164C125.852 94.9164 126.188 94.8918 126.565 94.8426C126.959 94.7934 127.246 94.7688 127.427 94.7688C127.607 94.7523 127.78 94.8016 127.944 94.9164C128.108 95.0149 128.215 95.1954 128.264 95.458C128.346 95.8518 128.182 96.1554 127.772 96.3688C127.591 96.4508 127.033 96.5493 126.098 96.6641C125.162 96.779 124.58 96.8364 124.35 96.8364ZM132.706 96.5164C132.394 96.8282 132.058 96.9431 131.697 96.8611C131.352 96.779 131.114 96.5247 130.983 96.098C130.786 95.4416 130.794 92.9964 131.007 88.7626C131.04 87.9257 131.106 87.3595 131.204 87.0641C131.385 86.6703 131.664 86.4898 132.041 86.5226C132.616 86.5718 132.903 86.9903 132.903 87.778C132.607 90.8139 132.64 92.3482 133.001 92.3811C133.214 92.3975 133.51 92.0857 133.887 91.4457C134.281 90.8057 134.683 90.0918 135.093 89.3041C135.52 88.5164 135.816 88.0323 135.98 87.8518C136.308 87.4908 136.661 87.4088 137.038 87.6057C137.481 87.8518 137.621 88.2129 137.457 88.6888C137.21 89.3616 136.439 90.7564 135.143 92.8734C133.863 94.9903 133.05 96.2047 132.706 96.5164ZM139.35 96.8364C138.447 96.7708 137.996 96.2867 137.996 95.3841C137.996 94.8262 138.111 94.0057 138.341 92.9226C138.456 92.4139 138.685 91.577 139.03 90.4118C139.375 89.2303 139.604 88.4918 139.719 88.1964C139.949 87.6221 140.203 87.2282 140.482 87.0149C140.761 86.7852 141.139 86.6785 141.615 86.6949C142.14 86.6949 142.558 86.7031 142.87 86.7195C143.182 86.7359 143.535 86.777 143.928 86.8426C144.322 86.8918 144.618 86.9903 144.815 87.138C145.012 87.2857 145.118 87.4826 145.135 87.7288C145.217 88.2375 144.921 88.5411 144.248 88.6395C143.576 88.738 142.895 88.7052 142.205 88.5411C141.729 88.4918 141.442 88.6641 141.344 89.058C141.311 89.2057 141.254 89.4108 141.172 89.6734C141.106 89.9359 141.057 90.1247 141.024 90.2395C140.909 90.5841 141.04 90.7811 141.418 90.8303C141.516 90.8467 141.68 90.8631 141.91 90.8795C142.14 90.8795 142.287 90.8877 142.353 90.9041C142.435 90.9205 142.55 90.9452 142.698 90.978C142.845 91.0108 142.944 91.06 142.993 91.1257C143.059 91.1749 143.116 91.2488 143.165 91.3472C143.231 91.4293 143.272 91.5441 143.288 91.6918C143.288 91.8723 143.256 92.0282 143.19 92.1595C143.141 92.2908 143.067 92.3893 142.968 92.4549C142.87 92.5205 142.731 92.578 142.55 92.6272C142.386 92.66 142.23 92.6847 142.082 92.7011C141.935 92.7011 141.738 92.7093 141.492 92.7257C141.245 92.7257 141.048 92.7339 140.901 92.7503C140.474 92.7667 140.212 92.9636 140.113 93.3411C140.064 93.5052 140.006 93.8252 139.941 94.3011C139.908 94.7113 140.113 94.9164 140.556 94.9164C140.852 94.9164 141.188 94.8918 141.565 94.8426C141.959 94.7934 142.246 94.7688 142.427 94.7688C142.607 94.7523 142.78 94.8016 142.944 94.9164C143.108 95.0149 143.215 95.1954 143.264 95.458C143.346 95.8518 143.182 96.1554 142.772 96.3688C142.591 96.4508 142.033 96.5493 141.098 96.6641C140.162 96.779 139.58 96.8364 139.35 96.8364ZM145.835 96.5903C145.737 96.5739 145.646 96.5575 145.564 96.5411C145.499 96.5082 145.441 96.4672 145.392 96.418C145.343 96.3688 145.293 96.3195 145.244 96.2703C145.211 96.2211 145.187 96.1554 145.17 96.0734C145.154 95.9749 145.138 95.9011 145.121 95.8518C145.121 95.8026 145.121 95.7205 145.121 95.6057C145.138 95.4744 145.146 95.3841 145.146 95.3349C145.146 95.2857 145.154 95.1954 145.17 95.0641C145.187 94.9164 145.195 94.818 145.195 94.7688C145.359 93.3739 145.802 91.3226 146.524 88.6149C146.754 87.778 147.304 87.2611 148.173 87.0641C149.043 86.8508 149.888 86.9411 150.709 87.3349C151.48 87.5975 151.997 88.0405 152.26 88.6641C152.522 89.2713 152.448 89.8949 152.038 90.5349C151.94 90.699 151.833 90.8467 151.718 90.978C151.603 91.0929 151.497 91.1831 151.398 91.2488C151.316 91.3144 151.168 91.4129 150.955 91.5441C150.742 91.6754 150.569 91.7821 150.438 91.8641C150.028 92.1267 150.036 92.4139 150.463 92.7257C151.201 93.2016 151.964 93.7595 152.752 94.3995C153.474 94.9739 153.81 95.4744 153.761 95.9011C153.745 96.3441 153.556 96.6067 153.195 96.6888C152.85 96.7544 152.473 96.6149 152.063 96.2703C151.652 95.8764 150.955 95.3267 149.97 94.6211C149.002 93.9154 148.338 93.4723 147.977 93.2918C147.796 93.2098 147.632 93.2016 147.484 93.2672C147.337 93.3164 147.254 93.4313 147.238 93.6118C147.222 93.6775 147.197 93.858 147.164 94.1534C147.131 94.4323 147.099 94.6293 147.066 94.7441C147.049 94.859 147.017 95.0477 146.967 95.3103C146.918 95.5564 146.861 95.737 146.795 95.8518C146.729 95.9667 146.647 96.098 146.549 96.2457C146.467 96.3934 146.36 96.4918 146.229 96.5411C146.114 96.5903 145.983 96.6067 145.835 96.5903ZM148.124 90.4118C148.288 90.658 148.723 90.6252 149.429 90.3134C150.085 90.0672 150.389 89.78 150.34 89.4518C150.29 89.14 149.97 88.9431 149.38 88.8611C148.805 88.779 148.461 88.8693 148.346 89.1318C148.05 89.7554 147.977 90.1821 148.124 90.4118ZM156.634 101.833C156.355 101.899 156.109 101.85 155.895 101.686C155.682 101.538 155.567 101.333 155.551 101.07C155.534 100.972 155.534 100.865 155.551 100.75C155.584 100.635 155.641 100.48 155.723 100.283C155.805 100.086 155.887 99.8805 155.969 99.6672C156.068 99.4539 156.199 99.1339 156.363 98.7072C156.544 98.297 156.716 97.8703 156.88 97.4272C157.077 96.9513 157.052 96.5739 156.806 96.2949C156.757 96.2293 156.642 95.819 156.462 95.0641C156.281 94.3093 156.068 93.4231 155.822 92.4057C155.592 91.3882 155.395 90.6252 155.231 90.1164C154.755 88.7216 154.935 88.0241 155.772 88.0241C155.92 88.0241 156.043 88.0488 156.142 88.098C156.256 88.1308 156.355 88.2129 156.437 88.3441C156.535 88.459 156.617 88.5821 156.683 88.7134C156.749 88.8447 156.814 89.0252 156.88 89.2549C156.962 89.4847 157.028 89.6898 157.077 89.8703C157.126 90.0508 157.184 90.3052 157.249 90.6334C157.331 90.9452 157.405 91.2077 157.471 91.4211C157.684 92.2416 157.848 92.7913 157.963 93.0703C158.078 93.3493 158.234 93.4641 158.431 93.4149C158.611 93.3493 158.808 93.0539 159.022 92.5288C159.465 91.5113 159.973 90.4447 160.548 89.3288C161.122 88.1964 161.491 87.5482 161.655 87.3841C161.951 87.0559 162.295 86.9739 162.689 87.138C163.231 87.4005 163.296 87.9503 162.886 88.7872C162.295 89.9195 161.713 91.1093 161.138 92.3564C160.581 93.6036 159.941 95.0641 159.218 96.738C158.513 98.4118 157.996 99.6262 157.668 100.381C157.438 100.89 157.257 101.243 157.126 101.44C156.995 101.653 156.831 101.784 156.634 101.833ZM163.983 96.8857C163.408 96.82 163.121 96.4754 163.121 95.8518C163.121 95.2611 163.474 94.0385 164.18 92.1841L165.14 89.378C165.287 88.9841 165.386 88.7134 165.435 88.5657C165.501 88.418 165.591 88.2129 165.706 87.9503C165.837 87.6877 165.944 87.5236 166.026 87.458C166.108 87.3759 166.223 87.2857 166.37 87.1872C166.518 87.0888 166.674 87.0477 166.838 87.0641C167.019 87.0805 167.224 87.1298 167.453 87.2118C169.242 87.7862 170.457 88.8529 171.097 90.4118C171.638 91.8231 171.449 93.1031 170.53 94.2518C168.791 96.3523 166.608 97.2303 163.983 96.8857ZM165.977 95.0641C166.896 94.818 167.708 94.4077 168.413 93.8334C169.119 93.2426 169.488 92.5862 169.521 91.8641C169.521 91.3718 169.332 90.8631 168.955 90.338C168.578 89.8129 168.151 89.4682 167.675 89.3041C167.363 89.1729 167.117 89.3616 166.937 89.8703C166.887 90.0016 166.723 90.4611 166.444 91.2488C166.182 92.02 165.936 92.7339 165.706 93.3903C165.476 94.0467 165.353 94.4077 165.337 94.4734C165.304 94.7031 165.345 94.8754 165.46 94.9903C165.574 95.0888 165.747 95.1134 165.977 95.0641ZM177.427 97.4026C177.328 97.3862 177.246 97.3698 177.18 97.3534C177.115 97.3205 177.049 97.2795 176.983 97.2303C176.934 97.1811 176.893 97.14 176.86 97.1072C176.828 97.058 176.795 96.9923 176.762 96.9103C176.746 96.8118 176.729 96.738 176.713 96.6888C176.713 96.6395 176.704 96.5575 176.688 96.4426C176.688 96.3113 176.688 96.2211 176.688 96.1718C176.688 96.1062 176.688 95.9995 176.688 95.8518C176.688 95.6877 176.688 95.5729 176.688 95.5072C176.721 95.1298 176.557 94.9247 176.196 94.8918L174.62 94.818C174.374 94.818 174.161 94.9575 173.98 95.2364C173.291 96.3195 172.873 96.9267 172.725 97.058C172.38 97.3041 172.028 97.3041 171.667 97.058C171.174 96.7462 171.174 96.2129 171.667 95.458L173.734 92.0118C174.21 91.2077 174.867 90.2723 175.703 89.2057C176.557 88.1226 177.189 87.458 177.599 87.2118C177.993 86.9821 178.354 86.9493 178.682 87.1134C179.027 87.2611 179.232 87.5482 179.297 87.9749C179.363 88.4508 179.264 89.9113 179.002 92.3564C178.739 94.7852 178.534 96.2621 178.387 96.7872C178.321 97.0005 178.198 97.1647 178.017 97.2795C177.853 97.3944 177.656 97.4354 177.427 97.4026ZM176.417 93.0457C176.811 93.0457 177.033 92.8652 177.082 92.5041C177.164 91.897 177.205 91.5031 177.205 91.3226C177.205 91.1421 177.148 91.0354 177.033 91.0026C176.787 90.8877 176.467 91.1011 176.073 91.6426C175.695 92.1841 175.572 92.5698 175.703 92.7995C175.769 92.9636 176.007 93.0457 176.417 93.0457ZM182.696 101.833C182.417 101.899 182.171 101.85 181.958 101.686C181.745 101.538 181.63 101.333 181.613 101.07C181.597 100.972 181.597 100.865 181.613 100.75C181.646 100.635 181.704 100.48 181.786 100.283C181.868 100.086 181.95 99.8805 182.032 99.6672C182.13 99.4539 182.261 99.1339 182.426 98.7072C182.606 98.297 182.778 97.8703 182.943 97.4272C183.139 96.9513 183.115 96.5739 182.869 96.2949C182.819 96.2293 182.705 95.819 182.524 95.0641C182.344 94.3093 182.13 93.4231 181.884 92.4057C181.654 91.3882 181.457 90.6252 181.293 90.1164C180.817 88.7216 180.998 88.0241 181.835 88.0241C181.982 88.0241 182.106 88.0488 182.204 88.098C182.319 88.1308 182.417 88.2129 182.499 88.3441C182.598 88.459 182.68 88.5821 182.746 88.7134C182.811 88.8447 182.877 89.0252 182.943 89.2549C183.025 89.4847 183.09 89.6898 183.139 89.8703C183.189 90.0508 183.246 90.3052 183.312 90.6334C183.394 90.9452 183.468 91.2077 183.533 91.4211C183.747 92.2416 183.911 92.7913 184.026 93.0703C184.14 93.3493 184.296 93.4641 184.493 93.4149C184.674 93.3493 184.871 93.0539 185.084 92.5288C185.527 91.5113 186.036 90.4447 186.61 89.3288C187.185 88.1964 187.554 87.5482 187.718 87.3841C188.013 87.0559 188.358 86.9739 188.752 87.138C189.293 87.4005 189.359 87.9503 188.949 88.7872C188.358 89.9195 187.775 91.1093 187.201 92.3564C186.643 93.6036 186.003 95.0641 185.281 96.738C184.575 98.4118 184.058 99.6262 183.73 100.381C183.5 100.89 183.32 101.243 183.189 101.44C183.057 101.653 182.893 101.784 182.696 101.833Z" fill="#0561E2"/>
<path d="M0.379531 26.3181C0.288108 26.504 0.364645 26.7287 0.550481 26.8202L3.57885 28.31C3.76469 28.4014 3.98945 28.3249 4.08088 28.139C4.1723 27.9532 4.09576 27.7284 3.90993 27.637L1.21804 26.3127L2.54233 23.6208C2.63375 23.435 2.55721 23.2102 2.37138 23.1188C2.18554 23.0274 1.96078 23.1039 1.86936 23.2898L0.379531 26.3181ZM0.716017 26.4837C0.836897 26.8387 0.837084 26.8386 0.837494 26.8385C0.837927 26.8383 0.838558 26.8381 0.839423 26.8378C0.841152 26.8372 0.843766 26.8363 0.847261 26.8351C0.85425 26.8328 0.86476 26.8292 0.878748 26.8245C0.906723 26.815 0.948609 26.8008 1.00407 26.7821C1.11498 26.7448 1.28019 26.6893 1.49695 26.6171C1.93049 26.4727 2.57029 26.2613 3.39458 25.9936C5.04319 25.458 7.42973 24.6971 10.3802 23.7959C16.2813 21.9934 24.4369 19.6301 33.455 17.387C42.474 15.1436 52.3507 13.0216 61.6953 11.7002C71.0456 10.3779 79.8382 9.86103 86.699 10.8138L86.8021 10.071C79.8379 9.10379 70.9636 9.63206 61.5903 10.9576C52.2112 12.2839 42.3074 14.4122 33.274 16.6591C24.2397 18.9063 16.071 21.2734 10.1611 23.0786C7.20594 23.9812 4.81517 24.7435 3.16287 25.2803C2.33672 25.5486 1.69515 25.7606 1.25995 25.9056C1.04235 25.978 0.876332 26.0338 0.764624 26.0714C0.70877 26.0902 0.666492 26.1045 0.638131 26.1141C0.62395 26.1189 0.613249 26.1225 0.606069 26.125C0.602479 26.1262 0.59977 26.1271 0.597946 26.1277C0.597034 26.128 0.596332 26.1283 0.595875 26.1284C0.595395 26.1286 0.595137 26.1287 0.716017 26.4837ZM86.699 10.8138C100.474 12.7268 109.477 16.7538 115.029 20.2882C117.805 22.0558 119.72 23.7015 120.937 24.9006C121.546 25.5002 121.981 25.9882 122.262 26.3242C122.402 26.4922 122.504 26.6221 122.57 26.709C122.604 26.7525 122.628 26.7851 122.643 26.8064C122.651 26.817 122.656 26.8248 122.66 26.8296C122.662 26.832 122.663 26.8337 122.663 26.8347C122.664 26.8352 122.664 26.8354 122.664 26.8356C122.664 26.8356 122.664 26.8355 122.664 26.8356C122.664 26.8355 122.664 26.8353 122.972 26.6214C123.28 26.4074 123.28 26.4072 123.279 26.4069C123.279 26.4067 123.279 26.4064 123.279 26.406C123.278 26.4054 123.278 26.4045 123.277 26.4035C123.276 26.4015 123.274 26.3987 123.271 26.3952C123.266 26.3881 123.259 26.3781 123.25 26.3653C123.231 26.3396 123.204 26.3025 123.167 26.2547C123.094 26.1589 122.985 26.02 122.837 25.8431C122.541 25.4893 122.09 24.9834 121.464 24.3662C120.21 23.1317 118.254 21.4527 115.431 19.6555C109.785 16.0604 100.678 11.9979 86.8021 10.071L86.699 10.8138Z" fill="#2B8EFF"/>
</svg>
