<svg xmlns="http://www.w3.org/2000/svg" width="141" height="55" viewBox="0 0 141 55" fill="none">
  <path d="M20.1365 46.0625C20.1115 46.0472 20.0865 46.0218 20.0615 45.9964C19.622 45.4421 16.9147 41.9788 14.1575 37.5339C13.3284 36.1201 12.7939 35.0115 12.8938 34.7267C13.1635 33.9842 17.9737 33.5773 19.4572 34.2486C19.9067 34.452 19.8967 34.7216 19.8967 34.8792C19.8967 35.5607 19.8617 37.3814 19.8617 37.3814C19.8617 37.7577 20.1614 38.0628 20.5311 38.0628C20.9007 38.0628 21.2004 37.7577 21.2004 37.3763L21.1954 32.8297C21.1954 32.433 20.7758 32.3364 20.6959 32.3212C19.9217 32.3161 18.3533 32.311 16.665 32.311C12.9438 32.311 12.1146 32.4686 11.4802 32.0465C10.1066 31.1413 7.86889 24.9775 7.81395 21.5091C7.73902 16.6168 10.5811 12.3805 14.5771 10.2801C16.2454 9.42063 18.1335 8.9375 20.1265 8.9375C26.4551 8.9375 31.6648 13.8146 32.3591 20.0903V20.1055C32.484 21.621 24.2973 21.9465 22.6789 21.5041C22.4291 21.4379 22.3692 21.1786 22.3692 21.0667C22.3692 19.9123 22.3592 16.6676 22.3592 16.6676C22.3592 16.2913 22.0595 15.9862 21.6899 15.9862C21.3203 15.9862 21.0206 16.2913 21.0206 16.6727L21.0356 22.6534C21.0455 23.0297 21.3552 23.1315 21.4401 23.1467H26.52C29.2323 23.1467 30.3711 23.4671 31.1253 24.057C31.6298 24.4486 31.8246 25.2013 31.6548 26.1777C30.1363 34.8538 20.5011 45.6099 20.1365 46.0625ZM46.26 25.7963C48.6926 26.8592 50.196 28.0391 50.196 30.6327C50.196 33.2773 48.233 34.986 45.1961 34.986C42.7336 34.986 40.7606 33.8469 39.7766 31.8635L39.6167 31.5431L42.5088 29.8292L42.6986 30.1445C43.348 31.2328 44.0772 31.6956 45.1362 31.6956C46.0452 31.6956 46.6596 31.2837 46.6596 30.6683C46.6596 29.9869 46.2151 29.7326 44.8464 29.1223L44.1521 28.8172C42.294 28.0086 40.5758 26.8846 40.5758 24.1638C40.5758 21.7177 42.4089 20.014 45.0363 20.014C47.0242 20.014 48.3929 20.8022 49.3319 22.4907L49.5067 22.806L46.7046 24.647L46.5098 24.2961C46.0402 23.4417 45.6007 23.2688 45.0412 23.2688C44.4568 23.2688 44.0772 23.5993 44.0772 24.113C44.0772 24.7029 44.3569 24.9623 45.5707 25.4963L46.26 25.7963ZM66.7443 26.2947L68.7872 20.4768H72.2936L67.0989 35.225H66.3197L63.1679 28.3188C63.023 28.0035 62.8682 27.6119 62.7383 27.2508C62.6035 27.6119 62.4486 28.0035 62.3038 28.3239L59.0271 35.2301H58.2529L52.9732 20.4818H56.7194L58.7823 26.2998C58.9122 26.671 59.0471 27.1237 59.1669 27.5407C59.3068 27.1084 59.4766 26.6405 59.6515 26.2642L62.3637 20.3598H63.1129L65.8652 26.2642C66.04 26.6405 66.2098 27.1084 66.3497 27.5407C66.4745 27.1186 66.6144 26.666 66.7443 26.2947ZM76.3795 34.8029V20.1767H79.9159V34.8029H76.3795ZM91.5192 29.8852V26.6151H98.0875V33.1705L97.9527 33.2823C97.2034 33.913 95.2104 34.9809 92.5082 34.9809C87.9528 34.9809 84.776 31.8991 84.776 27.4847C84.776 23.1518 87.8429 20.0089 92.0736 20.0089C94.3963 20.0089 96.1045 20.6802 97.2833 22.0533L97.5131 22.3228L95.1006 24.7639L94.8408 24.4893C94.1665 23.7824 93.4672 23.34 92.0786 23.34C89.9158 23.34 88.4023 25.0436 88.4023 27.4847C88.4023 30.0276 90.0157 31.6702 92.5182 31.6702C93.3473 31.6702 94.2115 31.5227 94.8009 31.2888V29.8801L91.5192 29.8852ZM109.451 29.8852V26.6151H116.019V33.1705L115.885 33.2823C115.13 33.913 113.142 34.9809 110.44 34.9809C105.885 34.9809 102.708 31.8991 102.708 27.4847C102.708 23.1518 105.775 20.0089 110 20.0089C112.328 20.0089 114.031 20.6802 115.21 22.0533L115.44 22.3228L113.027 24.7639L112.763 24.4893C112.088 23.7824 111.389 23.34 109.995 23.34C107.833 23.34 106.319 25.0436 106.319 27.4847C106.319 30.0276 107.933 31.6702 110.435 31.6702C111.264 31.6702 112.128 31.5227 112.718 31.2888V29.8801L109.451 29.8852ZM128.991 20.1767H132.688L127.613 29.9106V34.8029H124.056V30.1191L118.647 20.1818H122.593L125.09 24.8453C125.36 25.3539 125.64 26.0252 125.854 26.5693C126.059 26.0303 126.324 25.364 126.594 24.8504L128.991 20.1767Z" fill="#606B85"/>
</svg>